<svg width="196" height="197" viewBox="0 0 196 197" fill="none" xmlns="http://www.w3.org/2000/svg">
<ellipse rx="22.8667" ry="22.8667" transform="matrix(-1 0 0 1 173.133 23.2052)" fill="#F3ECAA"/>
<circle cx="98" cy="98.3385" r="98" fill="#F2FCF5"/>
<path d="M0.750004 173.472C0.750004 185.687 10.652 195.589 22.8667 195.589C35.0814 195.589 44.9833 185.687 44.9833 173.472C44.9833 161.257 35.0814 151.355 22.8667 151.355C10.652 151.355 0.750004 161.257 0.750004 173.472Z" stroke="#F3ECAA" stroke-width="1.5"/>
<g clip-path="url(#clip0_7_1252)">
<path d="M142.625 142.196C140.474 140.369 139.167 137.482 139.51 134.671C139.853 131.861 141.975 129.277 144.727 128.68C147.48 128.083 150.618 129.735 151.454 132.439C151.914 127.226 152.444 121.795 155.2 117.355C157.696 113.336 162.019 110.459 166.703 109.945C171.388 109.43 176.32 111.374 179.242 115.092C182.164 118.81 182.879 124.216 180.833 128.484C179.325 131.629 176.548 133.969 173.639 135.873C164.236 141.974 152.959 144.454 141.882 142.859L142.625 142.196Z" fill="#2CB674"/>
<path d="M174.609 111.482C170.744 114.648 167.198 118.188 164.022 122.053C159.053 128.081 155.031 134.838 152.098 142.091C151.883 142.62 152.738 142.851 152.95 142.327C157.749 130.54 165.411 120.151 175.234 112.11C175.675 111.749 175.047 111.123 174.609 111.482Z" fill="white"/>
<path d="M68.0819 141.7C71.0361 139.19 72.8305 135.224 72.3599 131.364C71.8894 127.504 68.9747 123.955 65.1939 123.135C61.4132 122.315 57.1034 124.585 55.9551 128.298C55.3231 121.138 54.5948 113.678 50.8092 107.581C47.3813 102.06 41.4443 98.1092 35.0099 97.4024C28.5755 96.6957 21.8008 99.365 17.7879 104.472C13.775 109.579 12.7925 117.003 15.603 122.866C17.6734 127.185 21.4879 130.4 25.4845 133.015C38.235 141.358 54.052 144.837 69.1022 142.61" fill="#2CB674"/>
<path d="M24.1508 99.513C29.46 103.861 34.3307 108.725 38.6923 114.033C43.0546 119.336 46.8951 125.051 50.1599 131.1C51.9848 134.492 53.6241 137.983 55.0706 141.555C55.3655 142.282 54.192 142.598 53.9004 141.88C51.3383 135.581 48.1685 129.551 44.4365 123.874C40.7227 118.218 36.472 112.938 31.7441 108.107C29.07 105.376 26.2486 102.795 23.2927 100.376C22.6868 99.8798 23.55 99.0209 24.1508 99.513L24.1508 99.513Z" fill="white"/>
<path d="M134.593 143.117H64.1103V70.3974C64.1103 54.9256 76.6277 42.3385 92.0137 42.3385H106.69C122.076 42.3385 134.593 54.9256 134.593 70.3974V143.117Z" fill="#2CB674" fill-opacity="0.1"/>
<path d="M119.917 143.117H64.1103V70.3974C64.0949 64.469 65.9617 58.6904 69.4391 53.903C69.5673 53.7273 69.6951 53.5539 69.827 53.3824C71.509 51.1641 73.5106 49.2105 75.7657 47.586C75.8931 47.4928 76.021 47.4012 76.1508 47.3096C78.0378 45.9965 80.0791 44.923 82.2282 44.1136C82.3558 44.065 82.4857 44.0163 82.6157 43.9695C84.5593 43.272 86.5741 42.7943 88.6228 42.545C88.7498 42.5276 88.8802 42.5139 89.0106 42.5003C91.0071 42.2856 93.0207 42.2856 95.0172 42.5003C95.1472 42.5139 95.2776 42.5276 95.4061 42.5452C97.4543 42.7945 99.4686 43.2722 101.412 43.9695C101.542 44.0163 101.672 44.065 101.8 44.1137C103.922 44.9129 105.939 45.9704 107.806 47.2625C107.936 47.3521 108.066 47.4437 108.194 47.5353C109.458 48.4426 110.645 49.4535 111.744 50.5575C112.625 51.443 113.446 52.387 114.201 53.383C114.332 53.5539 114.46 53.7273 114.588 53.9027C118.066 58.6902 119.933 64.4689 119.917 70.3974V143.117Z" fill="#CCCCCC"/>
<path d="M115.379 110.592C117.086 110.592 118.469 109.201 118.469 107.486C118.469 105.77 117.086 104.379 115.379 104.379C113.673 104.379 112.29 105.77 112.29 107.486C112.29 109.201 113.673 110.592 115.379 110.592Z" fill="#2CB674"/>
<path d="M128.819 140.939H126.452L125.325 131.757L128.82 131.757L128.819 140.939Z" fill="#FFB8B8"/>
<path d="M124.761 140.259H129.326V143.15H121.886C121.886 142.77 121.96 142.394 122.105 142.044C122.249 141.693 122.461 141.374 122.728 141.106C122.995 140.837 123.312 140.624 123.66 140.479C124.009 140.334 124.383 140.259 124.761 140.259Z" fill="#2F2E41"/>
<path d="M140.599 140.939H138.231L137.105 131.757L140.599 131.757L140.599 140.939Z" fill="#FFB8B8"/>
<path d="M136.54 140.259H141.106V143.15H133.665C133.665 142.77 133.74 142.394 133.884 142.044C134.028 141.693 134.24 141.374 134.507 141.106C134.774 140.837 135.091 140.624 135.44 140.479C135.789 140.334 136.162 140.259 136.54 140.259Z" fill="#2F2E41"/>
<path d="M116.943 108.101C116.773 107.849 116.659 107.562 116.611 107.261C116.563 106.96 116.581 106.652 116.664 106.358C116.747 106.065 116.893 105.794 117.092 105.563C117.291 105.333 117.537 105.149 117.814 105.025L125.862 82.7199L129.822 84.893L120.633 106.208C120.81 106.69 120.805 107.22 120.619 107.698C120.433 108.176 120.079 108.569 119.624 108.803C119.169 109.036 118.645 109.093 118.151 108.964C117.657 108.835 117.227 108.528 116.943 108.101Z" fill="#FFB8B8"/>
<path d="M139.389 112.292C139.126 112.141 138.899 111.933 138.725 111.683C138.55 111.434 138.432 111.149 138.379 110.849C138.325 110.549 138.338 110.24 138.416 109.946C138.494 109.651 138.636 109.377 138.83 109.143L136.337 85.5487L140.844 85.7557L141.88 108.964C142.249 109.319 142.476 109.798 142.517 110.31C142.558 110.821 142.412 111.33 142.105 111.741C141.798 112.151 141.352 112.434 140.851 112.535C140.351 112.637 139.83 112.55 139.389 112.292Z" fill="#FFB8B8"/>
<path d="M132.2 78.5885C134.819 78.5885 136.943 76.4533 136.943 73.8193C136.943 71.1853 134.819 69.05 132.2 69.05C129.58 69.05 127.457 71.1853 127.457 73.8193C127.457 76.4533 129.58 78.5885 132.2 78.5885Z" fill="#FFB8B8"/>
<path d="M139.359 106.926H125.06L125.077 106.814C125.103 106.647 127.626 90.0295 125.765 84.5931C125.578 84.0588 125.595 83.474 125.811 82.9512C126.028 82.4284 126.429 82.0046 126.937 81.7613H126.937C129.597 80.5019 134.701 78.9513 139.01 82.7145C139.644 83.2774 140.139 83.9809 140.456 84.7694C140.773 85.5579 140.903 86.4097 140.837 87.2575L139.359 106.926Z" fill="#2CB674"/>
<path d="M127.806 92.4853L121.369 91.172L124.387 83.9816C124.567 83.2852 125.015 82.6892 125.632 82.3244C126.249 81.9596 126.985 81.8558 127.678 82.0357C128.371 82.2156 128.964 82.6645 129.329 83.2841C129.693 83.9036 129.798 84.6431 129.621 85.3404L127.806 92.4853Z" fill="#2CB674"/>
<path d="M136.051 94.9238L135.664 86.0029C135.371 84.326 136.325 82.7407 137.794 82.4816C139.262 82.2234 140.696 83.3865 140.991 85.0758L142.446 93.4114L136.051 94.9238Z" fill="#2CB674"/>
<path d="M138.883 105.858C141.184 114.669 141.435 125.872 140.814 138.092L137.725 137.703L132.125 114.402L129.035 138.092L125.559 137.898C124.521 125.076 123.51 114.069 125.173 106.829L138.883 105.858Z" fill="#2F2E41"/>
<path d="M135.325 77.5051C134.44 78.4529 132.797 77.9441 132.682 76.6493C132.673 76.5488 132.673 76.4477 132.684 76.3473C132.743 75.7737 133.073 75.253 132.994 74.6475C132.976 74.4968 132.92 74.3532 132.831 74.2302C132.126 73.2808 130.471 74.6549 129.806 73.7954C129.398 73.2684 129.877 72.4386 129.564 71.8496C129.151 71.0722 127.927 71.4557 127.159 71.03C126.305 70.5563 126.356 69.2386 126.919 68.4372C127.604 67.4597 128.806 66.9382 129.994 66.863C131.181 66.7879 132.36 67.1105 133.468 67.5449C134.727 68.0383 135.976 68.7203 136.751 69.8338C137.693 71.1878 137.784 73.0082 137.313 74.5915C137.026 75.5546 136.047 76.7312 135.325 77.5051Z" fill="#2F2E41"/>
<path d="M104.566 122.049H79.4621C79.1315 122.051 78.8137 121.921 78.5784 121.687C78.343 121.454 78.2095 121.136 78.2069 120.803V64.4584C78.2095 64.126 78.343 63.8081 78.5784 63.5746C78.8137 63.3411 79.1315 63.2109 79.4621 63.2127H104.566C104.896 63.2109 105.214 63.3411 105.449 63.5746C105.685 63.8081 105.818 64.126 105.821 64.4584V120.803C105.818 121.136 105.685 121.454 105.449 121.687C105.214 121.921 104.896 122.051 104.566 122.049Z" fill="white"/>
<path d="M105.821 81.4442H78.2068V81.8325H105.821V81.4442Z" fill="#CCCCCC"/>
<path d="M105.917 103.602H78.3033V103.99H105.917V103.602Z" fill="#CCCCCC"/>
<path d="M87.2828 63.2128H86.8965V122.243H87.2828V63.2128Z" fill="#CCCCCC"/>
<path d="M96.9378 63.2128H96.5516V122.243H96.9378V63.2128Z" fill="#CCCCCC"/>
</g>
<defs>
<clipPath id="clip0_7_1252">
<rect width="168" height="101" fill="white" transform="translate(14 42.3385)"/>
</clipPath>
</defs>
</svg>
