<svg width="200" height="31" viewBox="0 0 200 31" fill="none" xmlns="http://www.w3.org/2000/svg">
<path fill-rule="evenodd" clip-rule="evenodd" d="M36.0245 2.11157C36.0245 1.25335 36.7202 0.557617 37.5784 0.557617H46.5917V8.5053C46.5917 9.36353 45.896 10.0593 45.0378 10.0593C44.1795 10.0593 43.4838 9.36353 43.4838 8.5053V3.66553H37.5784C36.7202 3.66553 36.0245 2.9698 36.0245 2.11157Z" fill="#1D1D35"/>
<path d="M40.2425 27.509C40.2425 29.4218 41.793 30.9723 43.7057 30.9723C45.6184 30.9723 47.169 29.4218 47.169 27.509C47.169 25.5963 45.6184 24.0458 43.7057 24.0458C41.793 24.0458 40.2425 25.5963 40.2425 27.509Z" fill="#1D1D35"/>
<path d="M53.8292 27.509C53.8292 29.4218 55.3797 30.9723 57.2924 30.9723C59.2051 30.9723 60.7557 29.4218 60.7557 27.509C60.7557 25.5963 59.2051 24.0458 57.2924 24.0458C55.3797 24.0458 53.8292 25.5963 53.8292 27.509Z" fill="#1D1D35"/>
<path d="M8.91971 28.1284C6.88921 28.1284 5.14877 27.7658 3.69842 27.0406C2.26878 26.2947 1.03597 25.2173 0 23.8084L2.92144 20.514C3.93669 21.9229 4.94158 22.8864 5.93611 23.4043C6.95136 23.9016 8.03913 24.1502 9.19942 24.1502C9.84172 24.1502 10.4115 24.057 10.9088 23.8705C11.4268 23.684 11.8308 23.4251 12.1209 23.0935C12.4316 22.762 12.587 22.3787 12.587 21.9436C12.587 21.6121 12.5145 21.3117 12.3695 21.0423C12.2245 20.7522 12.0173 20.5036 11.7479 20.2964C11.4786 20.0685 11.1574 19.8717 10.7845 19.7059C10.4115 19.5194 9.99712 19.364 9.54129 19.2397C9.08546 19.1154 8.5882 19.0015 8.04949 18.8979C6.88921 18.6492 5.87395 18.3281 5.00374 17.9344C4.13352 17.5407 3.40834 17.0642 2.8282 16.5048C2.24806 15.9453 1.81295 15.303 1.52288 14.5779C1.25352 13.832 1.11885 13.0032 1.11885 12.0915C1.11885 10.8069 1.48144 9.68808 2.20662 8.73499C2.9318 7.76118 3.89525 7.00492 5.09698 6.46621C6.2987 5.90679 7.62475 5.62708 9.0751 5.62708C11.0434 5.62708 12.6596 5.95859 13.9234 6.62161C15.2081 7.28463 16.2337 8.217 17.0003 9.41873L14.0167 12.3402C13.3744 11.4492 12.6388 10.7759 11.8101 10.32C10.9813 9.8642 10.0904 9.63628 9.13726 9.63628C8.47424 9.63628 7.88374 9.72952 7.36575 9.916C6.86849 10.0818 6.48518 10.3407 6.21582 10.693C5.94647 11.0245 5.8118 11.4182 5.8118 11.874C5.8118 12.2469 5.90503 12.5784 6.09151 12.8685C6.27798 13.1586 6.53698 13.4176 6.86849 13.6455C7.22072 13.8527 7.64546 14.0392 8.14273 14.2049C8.64 14.3707 9.18906 14.5053 9.78992 14.6089C10.9295 14.8369 11.9551 15.1476 12.8668 15.5413C13.7784 15.9143 14.5554 16.3701 15.1977 16.9088C15.8607 17.4475 16.3683 18.0691 16.7206 18.7735C17.0728 19.478 17.2489 20.2653 17.2489 21.1356C17.2489 22.6066 16.8967 23.8602 16.1922 24.8961C15.4878 25.9321 14.514 26.7298 13.2708 27.2892C12.0276 27.8487 10.5773 28.1284 8.91971 28.1284Z" fill="#2CB674"/>
<path d="M25.9778 27.8176V10.2579H19.6998V6.06218H37.1663V10.2579H30.6396V27.8176H25.9778Z" fill="#2CB674"/>
<path d="M49.7108 28.1284C48.1154 28.1284 46.634 27.8487 45.2665 27.2892C43.9197 26.7298 42.7491 25.9528 41.7546 24.9583C40.7807 23.943 40.0141 22.7517 39.4547 21.3842C38.916 20.0167 38.6466 18.5146 38.6466 16.8777C38.6466 15.2616 38.916 13.7698 39.4547 12.4023C40.0141 11.0348 40.7807 9.84348 41.7546 8.82823C42.7491 7.81298 43.9197 7.02564 45.2665 6.46621C46.634 5.90679 48.1154 5.62708 49.7108 5.62708C51.3062 5.62708 52.7669 5.90679 54.093 6.46621C55.4397 7.02564 56.6104 7.81298 57.6049 8.82823C58.5994 9.84348 59.3661 11.0348 59.9048 12.4023C60.4642 13.7698 60.7439 15.272 60.7439 16.9088C60.7439 18.5042 60.4642 19.9856 59.9048 21.3531C59.3661 22.7206 58.5994 23.912 57.6049 24.9272C56.6104 25.9425 55.4397 26.7298 54.093 27.2892C52.7669 27.8487 51.3062 28.1284 49.7108 28.1284ZM49.7108 23.7151C50.6225 23.7151 51.4616 23.5494 52.2282 23.2179C52.9948 22.8656 53.6579 22.3891 54.2173 21.7882C54.7974 21.1666 55.2429 20.4415 55.5537 19.6127C55.8645 18.7839 56.0199 17.8826 56.0199 16.9088C56.0199 15.9143 55.8645 15.0026 55.5537 14.1738C55.2429 13.3451 54.7974 12.6199 54.2173 11.9983C53.6579 11.3767 52.9948 10.9002 52.2282 10.5687C51.4616 10.2164 50.6225 10.0403 49.7108 10.0403C48.7992 10.0403 47.9497 10.2164 47.1623 10.5687C46.3957 10.9002 45.7223 11.3767 45.1422 11.9983C44.5828 12.5992 44.1476 13.3243 43.8369 14.1738C43.5261 15.0026 43.3707 15.9143 43.3707 16.9088C43.3707 18.2141 43.64 19.3848 44.1787 20.4207C44.7382 21.436 45.4944 22.244 46.4475 22.8449C47.4006 23.4251 48.4884 23.7151 49.7108 23.7151Z" fill="#2CB674"/>
<path d="M64.9639 27.8176V6.06218H74.5984C75.9659 6.06218 77.1883 6.36262 78.2657 6.96348C79.3639 7.56434 80.2341 8.39312 80.8764 9.44981C81.5187 10.4858 81.8398 11.6771 81.8398 13.0239C81.8398 14.3292 81.5187 15.5102 80.8764 16.5669C80.2341 17.6236 79.3639 18.4628 78.2657 19.0843C77.1115 19.5754 75.8321 19.61 73.6245 20.0167H69.4393V27.8176H64.9639ZM77.3334 27.8176L73.6245 20.0167L77.7498 19.3531L82.71 27.8486L77.3334 27.8176ZM69.4393 16.194H74.4119C74.9713 16.194 75.4582 16.0697 75.8726 15.821C76.3077 15.5517 76.6393 15.1891 76.8672 14.7333C77.1158 14.2774 77.2401 13.7594 77.2401 13.1793C77.2401 12.5784 77.0951 12.0501 76.805 11.5943C76.5149 11.1177 76.1109 10.7551 75.5929 10.5065C75.0749 10.2371 74.4741 10.1025 73.7903 10.1025H69.4393V16.194Z" fill="#2CB674"/>
<path d="M86.7557 27.8176V6.06218H101.425V10.1646H91.3243V23.7151H101.643V27.8176H86.7557ZM91.3243 18.7114V14.7333H99.9332V18.7114H91.3243Z" fill="#2CB674"/>
<path d="M120.221 27.8176V6.06218H124.882V27.8176H120.221ZM106.484 27.8176V6.06218H111.145V27.8176H106.484ZM111.145 19.1154V14.8265H120.221V19.1154H111.145Z" fill="#1D1D35"/>
<path d="M140.186 28.1284C138.591 28.1284 137.109 27.8487 135.742 27.2892C134.395 26.7298 133.225 25.9528 132.23 24.9583C131.256 23.943 130.49 22.7517 129.93 21.3842C129.391 20.0167 129.122 18.5146 129.122 16.8777C129.122 15.2616 129.391 13.7698 129.93 12.4023C130.49 11.0348 131.256 9.84348 132.23 8.82823C133.225 7.81298 134.395 7.02564 135.742 6.46621C137.109 5.90679 138.591 5.62708 140.186 5.62708C141.782 5.62708 143.242 5.90679 144.568 6.46621C145.915 7.02564 147.086 7.81298 148.08 8.82823C149.075 9.84348 149.842 11.0348 150.38 12.4023C150.94 13.7698 151.219 15.272 151.219 16.9088C151.219 18.5042 150.94 19.9856 150.38 21.3531C149.842 22.7206 149.075 23.912 148.08 24.9272C147.086 25.9425 145.915 26.7298 144.568 27.2892C143.242 27.8487 141.782 28.1284 140.186 28.1284ZM140.186 23.7151C141.098 23.7151 141.937 23.5494 142.704 23.2179C143.47 22.8656 144.133 22.3891 144.693 21.7882C145.273 21.1666 145.718 20.4415 146.029 19.6127C146.34 18.7839 146.495 17.8826 146.495 16.9088C146.495 15.9143 146.34 15.0026 146.029 14.1738C145.718 13.3451 145.273 12.6199 144.693 11.9983C144.133 11.3767 143.47 10.9002 142.704 10.5687C141.937 10.2164 141.098 10.0403 140.186 10.0403C139.275 10.0403 138.425 10.2164 137.638 10.5687C136.871 10.9002 136.198 11.3767 135.618 11.9983C135.058 12.5992 134.623 13.3243 134.312 14.1738C134.002 15.0026 133.846 15.9143 133.846 16.9088C133.846 18.2141 134.115 19.3848 134.654 20.4207C135.214 21.436 135.97 22.244 136.923 22.8449C137.876 23.4251 138.964 23.7151 140.186 23.7151Z" fill="#1D1D35"/>
<path d="M165.074 28.1284C163.478 28.1284 161.997 27.8487 160.63 27.2892C159.283 26.7298 158.112 25.9528 157.118 24.9583C156.144 23.943 155.377 22.7517 154.818 21.3842C154.279 20.0167 154.01 18.5146 154.01 16.8777C154.01 15.2616 154.279 13.7698 154.818 12.4023C155.377 11.0348 156.144 9.84348 157.118 8.82823C158.112 7.81298 159.283 7.02564 160.63 6.46621C161.997 5.90679 163.478 5.62708 165.074 5.62708C166.669 5.62708 168.13 5.90679 169.456 6.46621C170.803 7.02564 171.973 7.81298 172.968 8.82823C173.962 9.84348 174.729 11.0348 175.268 12.4023C175.827 13.7698 176.107 15.272 176.107 16.9088C176.107 18.5042 175.827 19.9856 175.268 21.3531C174.729 22.7206 173.962 23.912 172.968 24.9272C171.973 25.9425 170.803 26.7298 169.456 27.2892C168.13 27.8487 166.669 28.1284 165.074 28.1284ZM165.074 23.7151C165.985 23.7151 166.825 23.5494 167.591 23.2179C168.358 22.8656 169.021 22.3891 169.58 21.7882C170.16 21.1666 170.606 20.4415 170.917 19.6127C171.228 18.7839 171.383 17.8826 171.383 16.9088C171.383 15.9143 171.228 15.0026 170.917 14.1738C170.606 13.3451 170.16 12.6199 169.58 11.9983C169.021 11.3767 168.358 10.9002 167.591 10.5687C166.825 10.2164 165.985 10.0403 165.074 10.0403C164.162 10.0403 163.313 10.2164 162.525 10.5687C161.759 10.9002 161.085 11.3767 160.505 11.9983C159.946 12.5992 159.511 13.3243 159.2 14.1738C158.889 15.0026 158.734 15.9143 158.734 16.9088C158.734 18.2141 159.003 19.3848 159.542 20.4207C160.101 21.436 160.857 22.244 161.811 22.8449C162.764 23.4251 163.851 23.7151 165.074 23.7151Z" fill="#1D1D35"/>
<path d="M184.998 20.2559L184.989 15.2937L193.877 6.06218H199.565L184.998 20.2559ZM180.327 27.8176V6.06218H184.989V27.8176H180.327ZM194.437 27.8176L187.153 18.1795L190.183 15.2209L200 27.8176H194.437Z" fill="#1D1D35"/>
</svg>
