<svg width="300" height="301" viewBox="0 0 300 301" fill="none" xmlns="http://www.w3.org/2000/svg">
  <path
    d="M265 70.16C245.67 70.16 230 54.49 230 35.16C230 15.8301 245.67 0.160034 265 0.160034C284.33 0.160034 300 15.8301 300 35.16C300 54.49 284.33 70.16 265 70.16Z"
    fill="#F3ECAA" />
  <path
    d="M150 300.16C232.843 300.16 300 233.003 300 150.16C300 67.3173 232.843 0.160034 150 0.160034C67.1573 0.160034 0 67.3173 0 150.16C0 233.003 67.1573 300.16 150 300.16Z"
    fill="#F2FCF5" />
  <path
    d="M35 299.41C16.0842 299.41 0.75 284.076 0.75 265.16C0.75 246.244 16.0842 230.91 35 230.91C53.9158 230.91 69.25 246.244 69.25 265.16C69.25 284.076 53.9158 299.41 35 299.41Z"
    stroke="#F3ECAA" stroke-width="1.5" />
  <path opacity="0.1"
    d="M115.973 225.658C137.524 225.658 154.995 222.357 154.995 218.286C154.995 214.214 137.524 210.913 115.973 210.913C94.4212 210.913 76.9502 214.214 76.9502 218.286C76.9502 222.357 94.4212 225.658 115.973 225.658Z"
    fill="#2CB674" />
  <path
    d="M156.079 134.412L149.291 129.849L152.715 124.766L134.788 123.341L128.346 128.309L120.283 123.8L113.557 124.607L113.478 122.839C113.394 120.996 113.209 119.159 112.921 117.336C112.95 116.784 112.97 116.15 112.968 115.46C112.968 112.554 112.573 108.702 110.841 106.134L111.239 102.559L108.004 98.7464C108.524 97.7142 109.116 96.7202 109.777 95.7718C109.888 95.6127 109.999 95.458 110.118 95.3077C114.317 95.005 117.63 91.5619 117.63 87.352C117.63 87.1575 117.63 86.963 117.608 86.7708C117.608 86.6934 117.593 86.6139 117.584 86.5365C117.994 86.7575 118.408 86.9785 118.822 87.1995C118.9 87.31 118.989 87.4205 119.086 87.5509L119.106 87.5752L119.23 87.7277L119.27 87.7741C119.314 87.8271 119.361 87.8779 119.407 87.931L119.438 87.9663C119.556 88.0967 119.68 88.2293 119.813 88.3597C119.829 88.3725 119.844 88.3866 119.857 88.4017L120.023 88.5564L120.07 88.5984C120.212 88.7243 120.362 88.8459 120.513 88.9608L120.562 88.9962L120.752 89.1265L120.815 89.1663C120.888 89.2105 120.963 89.2569 121.036 89.2989L121.063 89.3144C121.149 89.3608 121.238 89.405 121.326 89.447L121.371 89.4647C121.446 89.4971 121.52 89.528 121.592 89.5575L121.661 89.5818C121.739 89.6083 121.814 89.6326 121.894 89.6547L121.942 89.668C122.04 89.6923 122.137 89.7122 122.237 89.7276H122.248C122.342 89.7428 122.437 89.7524 122.532 89.7564H122.596C122.681 89.7608 122.766 89.7608 122.851 89.7564H122.906C123.013 89.7503 123.118 89.7377 123.223 89.7188C123.719 89.6538 124.195 89.4835 124.619 89.2194C124.727 89.1473 124.823 89.0586 124.903 88.9564C125.346 88.3774 124.859 87.7431 124.859 87.7431C124.686 87.3321 123.564 87.0426 123.564 87.0426C123.564 87.0426 120.019 85.5663 120.019 84.3907C120.019 83.215 119.133 77.1156 109.983 75.7211C109.983 75.7211 104.031 75.3874 102.358 78.5653L102.323 78.9366C101.831 79.2437 101.423 79.8603 100.938 80.0415C100.728 80.0864 100.526 80.1608 100.337 80.2625V80.2205C100.281 80.2694 100.235 80.3287 100.202 80.3951C100.098 80.602 100.035 80.8272 100.018 81.0581C99.9681 81.3401 99.8699 81.6115 99.7277 81.8603C99.6881 81.931 99.6437 81.9989 99.5948 82.0636L99.5571 82.1233C99.8144 82.1433 100.073 82.1016 100.311 82.0017C100.273 82.3043 100.199 82.6012 100.089 82.8857C100.23 82.8902 100.369 82.8543 100.49 82.7823C100.611 82.7102 100.709 82.6049 100.771 82.4791V82.4614L100.8 82.4216C100.856 82.3193 100.902 82.212 100.938 82.1012L100.913 82.1277C100.958 81.9841 100.997 81.8382 101.046 81.6968C101.069 81.6171 101.105 81.5422 101.155 81.4758C101.214 81.4163 101.286 81.3715 101.366 81.345C101.446 81.3186 101.53 81.3111 101.614 81.3233L101.523 83.2393H101.563C101.509 83.3787 101.444 83.5132 101.368 83.6415C101.053 84.1498 100.481 84.4967 100.271 85.0536C100.18 85.3222 100.145 85.6065 100.169 85.889C100.169 86.0547 100.189 86.2227 100.202 86.3884V86.3752C100.233 86.8172 100.242 87.2371 100.003 87.5929C99.8385 87.8359 99.5749 88.0194 99.484 88.2956C99.4589 88.3726 99.4476 88.4534 99.4508 88.5343C99.4685 88.7765 99.5192 89.0151 99.6014 89.2437C99.6024 89.2393 99.6024 89.2348 99.6014 89.2304C99.6567 89.3985 99.6696 89.5777 99.6391 89.752C99.5394 90.1939 99.0009 90.563 99.0275 90.9851C99.026 91.0406 99.0342 91.096 99.0519 91.1486C99.1555 91.3548 99.3349 91.5131 99.5527 91.5906C99.8943 91.7844 100.287 91.8706 100.678 91.8381C100.825 91.8117 100.967 91.7633 101.099 91.6945C100.944 92.0503 100.785 92.4017 100.623 92.7354C100.599 92.7884 100.572 92.8414 100.545 92.8945C100.545 92.8945 99.176 91.9818 98.3982 93.8425C98.1711 94.2292 98.0087 94.6502 97.9173 95.0889C97.8784 95.2644 97.8235 95.436 97.7534 95.6016C97.4081 96.1846 96.8913 96.6476 96.2731 96.9276C94.6865 97.6525 88.278 105.624 88.165 107.688C88.1096 108.493 87.973 109.292 87.7573 110.07C87.2528 111.903 87.1232 113.819 87.3762 115.703C87.4553 116.312 87.5866 116.913 87.7684 117.5C88.4487 119.562 88.9029 123.409 88.9029 123.409L89.6386 130.088C89.6113 131.009 89.6513 131.932 89.7583 132.848C89.0071 133.703 85.9912 137.268 87.1435 138.238C88.0299 139.002 89.581 138.876 90.4519 138.72C89.7184 140.53 88.5639 143.676 88.411 145.838C88.1894 149.036 88.7899 153.272 89.7406 154.898C90.6912 156.525 93.86 160.697 93.86 160.697C93.86 160.697 93.7115 166.421 94.8438 168.501C95.9762 170.58 96.4327 174.894 96.4327 174.894C96.4327 174.894 97.4897 178.536 96.9601 179.875C96.4304 181.214 97.9417 182.328 96.3551 183.219C94.7685 184.109 92.7387 204.182 92.7387 204.182C92.7387 204.182 91.921 217.338 92.7387 218.007C92.7825 218.039 92.8292 218.067 92.8783 218.089V222.509C92.8783 222.509 92.311 223.437 94.6178 223.625C96.1978 223.751 100.676 224.036 103.333 224.202L105.392 224.33C105.392 224.33 110.267 225.298 112.421 224.33C114.574 223.362 118.393 223.384 117.825 220.827C117.75 220.479 117.649 220.137 117.524 219.804C116.901 218.217 115.844 218.036 113.896 217.594C113.783 217.57 113.675 217.548 113.575 217.53C111.523 217.174 110.849 218.127 109.699 216.887C108.7 215.815 105.518 214.615 104.434 214.235C104.461 214.156 104.494 214.078 104.521 213.996C104.214 213.945 103.929 213.806 103.699 213.596L106.635 213.782L108.383 213.89C108.383 213.89 112.527 214.715 114.366 213.89C116.205 213.066 119.441 213.088 118.958 210.916C118.894 210.62 118.809 210.329 118.703 210.045C118.173 208.697 117.273 208.549 115.618 208.175C115.523 208.156 115.434 208.136 115.346 208.12C113.602 207.817 113.03 208.626 112.053 207.574C111.215 206.677 108.572 205.672 107.621 205.329C107.621 204.838 106.956 204.14 106.537 203.44C106.045 202.622 106.954 199.76 106.954 199.76L107.472 187.886C107.67 187.798 107.879 187.739 108.093 187.709C108.093 187.709 110.437 185.477 109.908 183.099C109.8 182.38 109.744 181.654 109.739 180.927C110.51 180.213 111.572 179.159 111.873 178.509C112.365 177.451 111.873 172.322 111.873 172.322V152.708L115.795 153.104L119.354 153.469L120.438 153.579L123.997 153.937L132.176 154.761L139.546 153.369L142.734 152.768L149.291 151.531V135.531L156.079 134.412ZM102.097 81.394L101.64 81.3454C101.791 81.352 101.95 81.3807 102.097 81.394Z"
    fill="url(#paint0_linear_41_884)" />
  <path
    d="M140.171 144.801C137.955 147.964 129.988 146.289 129.988 146.289L123.815 140.527L122.984 139.747L124.378 136.795C124.378 136.795 124.821 136.916 125.581 137.133C129.572 138.289 142.041 142.143 140.171 144.801Z"
    fill="#EFB7B9" />
  <path opacity="0.1"
    d="M125.576 137.133C125.304 138.079 124.557 139.495 123.815 140.527L122.984 139.747L124.378 136.795C124.378 136.795 124.825 136.916 125.576 137.133Z"
    fill="black" />
  <path
    d="M104.403 103.838C104.403 103.838 98.7128 106.355 98.992 112.536C99.1929 116.518 99.628 120.485 100.295 124.417C100.295 124.417 99.1316 133.718 103.976 136.116C108.82 138.514 113.302 140.485 113.302 140.485C113.302 140.485 120.881 141.298 121.823 141.634C122.764 141.97 125.707 136.834 125.164 136.034C124.621 135.234 117.666 133.557 116.779 132.222C115.893 130.888 113.843 130.063 113.843 130.063C113.843 130.063 111.727 128.786 111.583 127.632C111.439 126.479 111.997 125.619 112.139 125.113C112.281 124.607 112.64 119.721 112.64 119.721C112.64 119.721 115.029 102.329 104.403 103.838Z"
    fill="#DCE6F2" />
  <path opacity="0.1"
    d="M108.159 124.163C108.159 124.163 100.353 125.467 101.108 128.191C101.108 128.191 103.942 125.25 108.159 124.163Z"
    fill="black" />
  <path opacity="0.1"
    d="M108.219 125.266C108.219 125.266 103.927 128.759 104.767 128.938C105.607 129.117 108.219 125.266 108.219 125.266Z"
    fill="black" />
  <path opacity="0.1"
    d="M110.282 126.483C110.282 126.483 109.132 128.832 109.839 128.673C110.546 128.514 110.282 126.483 110.282 126.483Z"
    fill="black" />
  <path opacity="0.1"
    d="M125.865 137.382L125.39 137.248C125.526 136.806 125.563 136.448 125.452 136.282C124.91 135.482 117.958 133.807 117.074 132.47C116.19 131.133 114.138 130.311 114.138 130.311C114.138 130.311 112.022 129.033 111.878 127.88C111.734 126.726 112.292 125.866 112.434 125.36C112.576 124.854 112.935 119.966 112.935 119.966C112.935 119.966 115.317 102.576 104.691 104.085C104.691 104.085 99.0009 106.605 99.2779 112.786C99.4788 116.768 99.9147 120.735 100.583 124.666C100.583 124.666 99.4197 133.968 104.264 136.366C109.108 138.764 113.591 140.735 113.591 140.735C113.591 140.735 121.167 141.546 122.111 141.884C122.468 142.012 123.112 141.351 123.744 140.443L124.103 140.777L130.276 146.536C130.276 146.536 138.243 148.213 140.459 145.051C142.331 142.39 129.864 138.536 125.865 137.382Z"
    fill="black" />
  <path
    d="M101.128 80.6381C100.911 80.6804 100.703 80.7604 100.514 80.8745C100.293 81.058 100.293 81.3718 100.237 81.6458C100.172 82.027 100.021 82.3883 99.7941 82.7021C100.046 82.7206 100.299 82.6789 100.532 82.5806C100.494 82.8831 100.42 83.1799 100.31 83.4646C100.449 83.4681 100.585 83.4318 100.703 83.36C100.82 83.2883 100.915 83.1842 100.975 83.0601C101.092 82.8111 101.185 82.5513 101.252 82.2845C101.273 82.2046 101.309 82.1296 101.359 82.0635C101.562 81.8226 101.941 81.9309 102.256 81.9618C102.518 81.9838 102.781 81.9356 103.018 81.8221C103.255 81.7087 103.457 81.5341 103.603 81.3165C103.938 80.8104 103.958 79.5154 103.16 79.3784C102.327 79.2414 101.808 80.3861 101.128 80.6381Z"
    fill="#965D7B" />
  <g opacity="0.1">
    <path opacity="0.1"
      d="M100.492 81.1464C100.512 81.0381 100.525 80.9254 100.55 80.8171C100.339 81.0006 100.328 81.3122 100.273 81.5884C100.245 81.7478 100.201 81.904 100.142 82.0547C100.317 81.7774 100.435 81.4689 100.492 81.1464Z"
      fill="black" />
    <path opacity="0.1"
      d="M100.563 82.9718C100.673 82.6875 100.748 82.3906 100.785 82.0879C100.563 82.181 100.323 82.2226 100.082 82.2094C100.012 82.3648 99.9269 82.5129 99.8274 82.6514C100.079 82.6708 100.331 82.6299 100.563 82.5321C100.526 82.8347 100.452 83.1317 100.341 83.416C100.48 83.4193 100.616 83.3829 100.733 83.3112C100.851 83.2395 100.946 83.1355 101.006 83.0116C101.061 82.9112 101.106 82.8053 101.139 82.6956C101.074 82.7862 100.987 82.859 100.887 82.9073C100.786 82.9556 100.675 82.9778 100.563 82.9718Z"
      fill="black" />
    <path opacity="0.1"
      d="M102.509 81.469C102.194 81.4381 101.813 81.3298 101.609 81.5707C101.56 81.6374 101.524 81.7122 101.503 81.7917C101.483 81.8492 101.465 81.9088 101.449 81.9685C101.66 81.8027 102.001 81.8911 102.287 81.9199C102.549 81.9412 102.812 81.8927 103.048 81.7793C103.285 81.6659 103.487 81.4917 103.634 81.2746C103.702 81.1673 103.752 81.0502 103.783 80.9276C103.631 81.1149 103.436 81.2622 103.213 81.3566C102.991 81.451 102.749 81.4896 102.509 81.469Z"
      fill="black" />
  </g>
  <path d="M107.798 98.8899L111.177 102.943L110.736 107.033L106.652 100.658L107.798 98.8899Z" fill="#DCE6F2" />
  <path opacity="0.1"
    d="M111.175 102.943L110.761 106.79L110.734 107.033L107.049 101.279L106.652 100.658L106.768 100.479L107.796 98.8899L108.024 99.1639L111.175 102.943Z"
    fill="black" />
  <path
    d="M112.93 93.4027C111.787 93.7297 110.694 94.8524 109.744 96.2159C109.101 97.1567 108.527 98.1419 108.024 99.1639C107.712 99.7871 107.437 100.386 107.209 100.908L107.049 101.279C106.664 102.187 106.449 102.795 106.449 102.795C106.449 102.795 97.6957 96.2314 99.0807 95.7894C99.546 95.6413 100.158 94.6468 100.763 93.3938L100.838 93.2347C101.221 92.4303 101.598 91.5331 101.933 90.6889C102.617 88.9541 103.125 87.4469 103.125 87.4469C103.125 87.4469 116.42 92.4082 112.93 93.4027Z"
    fill="#EFB7B9" />
  <path
    d="M118.167 87.0779C118.167 87.0779 120.187 90.7243 122.902 90.227C125.616 89.7298 124.5 88.269 124.5 88.269L118.167 87.0779Z"
    fill="#444053" />
  <path
    d="M114.251 213.298C112.461 214.113 108.412 213.298 108.412 213.298L106.706 213.192C104.49 213.05 100.78 212.812 99.4685 212.706C97.554 212.549 98.0237 211.767 98.0237 211.767V207.039L107.313 204.693C107.313 204.693 110.985 205.946 111.991 207.039C112.946 208.083 113.504 207.28 115.208 207.581C115.292 207.596 115.381 207.614 115.474 207.636C117.092 208.005 117.969 208.151 118.488 209.488C118.592 209.769 118.676 210.057 118.738 210.35C119.217 212.502 116.039 212.487 114.251 213.298Z"
    fill="#A36468" />
  <path opacity="0.1"
    d="M118.488 209.488C118.155 209.695 117.805 209.874 117.442 210.023C116.223 210.577 115.064 211.254 113.832 211.777C112.6 212.301 111.273 212.675 109.939 212.575C109.241 212.524 108.527 212.354 107.86 212.553C107.448 212.712 107.059 212.927 106.706 213.192C104.49 213.05 100.78 212.812 99.4685 212.706C97.554 212.549 98.0237 211.766 98.0237 211.766V211.214C98.0924 211.214 98.17 211.194 98.2586 211.187C98.7172 211.18 99.1739 211.248 99.6104 211.389C100.572 211.649 101.529 211.906 102.491 212.162C102.57 211.864 102.709 211.586 102.9 211.343C103.09 211.101 103.328 210.9 103.599 210.752C104.148 210.461 104.764 210.32 105.385 210.343C106.876 210.363 108.288 211.068 109.777 211.139C110.193 211.177 110.612 211.107 110.994 210.935C111.197 210.834 111.377 210.686 111.576 210.573C111.896 210.419 112.233 210.305 112.58 210.235C113.557 209.993 114.515 209.684 115.45 209.311C115.716 209.207 116.026 209.019 115.991 208.737C115.944 208.361 115.352 208.317 115.197 207.972C115.17 207.91 115.157 207.842 115.16 207.774C115.163 207.706 115.182 207.64 115.215 207.581C115.299 207.596 115.388 207.614 115.481 207.636C117.092 208.005 117.969 208.151 118.488 209.488Z"
    fill="black" />
  <path
    d="M112.359 223.64C110.253 224.6 105.489 223.64 105.489 223.64L103.484 223.523C100.887 223.358 96.5124 223.081 94.9679 222.951C92.7143 222.765 93.2683 221.846 93.2683 221.846V216.275L104.199 213.512C104.199 213.512 108.521 214.986 109.704 216.275C110.827 217.501 111.477 216.558 113.491 216.911C113.591 216.929 113.695 216.951 113.803 216.975C115.707 217.417 116.739 217.583 117.349 219.156C117.472 219.487 117.571 219.826 117.644 220.171C118.193 222.703 114.464 222.684 112.359 223.64Z"
    fill="#A36468" />
  <path opacity="0.1"
    d="M117.344 219.157C116.953 219.4 116.541 219.611 116.115 219.786C114.681 220.438 113.316 221.234 111.867 221.85C110.417 222.467 108.855 222.905 107.284 222.79C106.464 222.73 105.624 222.525 104.847 222.763C104.359 222.952 103.901 223.208 103.484 223.523C100.887 223.358 96.5124 223.081 94.9679 222.951C92.7143 222.765 93.2683 221.846 93.2683 221.846V221.196C93.3601 221.181 93.4525 221.171 93.5453 221.165C94.0851 221.156 94.6228 221.235 95.1363 221.402L98.5245 222.312C98.6189 221.961 98.7841 221.633 99.01 221.347C99.236 221.062 99.5179 220.826 99.8385 220.653C100.484 220.309 101.21 220.143 101.941 220.171C103.696 220.195 105.356 221.024 107.109 221.108C107.597 221.152 108.089 221.071 108.536 220.871C108.778 220.75 108.979 220.575 109.223 220.445C109.598 220.262 109.995 220.128 110.404 220.047C111.547 219.76 112.669 219.396 113.763 218.96C114.076 218.836 114.442 218.615 114.399 218.284C114.344 217.842 113.648 217.789 113.464 217.382C113.433 217.309 113.419 217.229 113.423 217.15C113.427 217.07 113.449 216.992 113.486 216.922C113.586 216.94 113.69 216.962 113.799 216.986C115.702 217.411 116.735 217.583 117.344 219.157Z"
    fill="black" />
  <path
    d="M107.594 185.411L107.003 199.296C107.003 199.296 106.116 202.131 106.597 202.942C107.078 203.753 107.889 204.562 107.594 205.042C107.3 205.521 103.754 210.706 102.608 208.717C101.463 206.728 100.333 198.109 100.333 198.109L101.39 187.464L107.594 185.411Z"
    fill="#444053" />
  <path
    d="M110.16 150.817L111.805 153.009V172.076C111.805 172.076 112.285 177.159 111.805 178.209C111.324 179.258 108.886 181.358 108.886 181.358L106.836 170.861L107.28 159.756L110.16 150.817Z"
    fill="#444053" />
  <path opacity="0.1"
    d="M107.594 185.411L107.003 199.296C107.003 199.296 106.116 202.131 106.597 202.942C107.078 203.753 107.889 204.562 107.594 205.042C107.3 205.521 103.754 210.706 102.608 208.717C101.463 206.728 100.333 198.109 100.333 198.109L101.39 187.464L107.594 185.411Z"
    fill="black" />
  <path opacity="0.1"
    d="M110.16 150.817L111.805 153.009V172.076C111.805 172.076 112.285 177.159 111.805 178.209C111.324 179.258 108.886 181.358 108.886 181.358L106.836 170.861L107.28 159.756L110.16 150.817Z"
    fill="black" />
  <path
    d="M111.805 142.684V152.998L109.959 161.027C109.959 161.027 109.367 180.401 109.883 182.757C110.4 185.113 108.111 187.325 108.111 187.325C108.111 187.325 106.781 187.473 106.781 188.503C106.781 189.532 104.565 192.48 104.565 192.48L104.638 198.226C104.638 198.226 105.6 208.982 104.122 211.044C102.644 213.106 104.638 213.402 104.638 213.402C102.792 219.442 93.9286 218.043 93.1287 217.38C92.3287 216.717 93.1287 203.678 93.1287 203.678C93.1287 203.678 95.1097 183.789 96.6609 182.905C98.212 182.021 96.7362 180.916 97.2525 179.59C97.7688 178.264 96.7362 174.655 96.7362 174.655C96.7362 174.655 96.293 170.381 95.1851 168.319C94.0771 166.257 94.2233 160.585 94.2233 160.585C94.2233 160.585 91.121 156.459 90.1992 154.839C89.2774 153.219 88.6835 149.02 88.9051 145.851C89.0558 143.709 90.1837 140.591 90.8994 138.797C91.2429 137.937 91.4911 137.38 91.4911 137.38L91.7016 137.435L103.805 140.596L111.805 142.684Z"
    fill="#444053" />
  <path opacity="0.1"
    d="M112.93 93.4026C111.787 93.7297 110.694 94.8523 109.744 96.2159H109.496C108.102 96.2168 106.733 95.851 105.527 95.1552C104.321 94.4595 103.32 93.4585 102.626 92.2535C102.336 91.7541 102.103 91.2242 101.93 90.6734C102.615 88.9386 103.123 87.4314 103.123 87.4314C103.123 87.4314 116.42 92.4082 112.93 93.4026Z"
    fill="black" />
  <path
    d="M117.418 87.8778C117.419 89.0869 117.143 90.2804 116.61 91.3663C116.076 92.4522 115.3 93.4015 114.341 94.1411C113.382 94.8806 112.265 95.3907 111.077 95.6321C109.889 95.8734 108.661 95.8396 107.488 95.5332C106.315 95.2267 105.228 94.6559 104.312 93.8647C103.395 93.0734 102.672 92.0828 102.2 90.9692C101.727 89.8556 101.517 88.6487 101.586 87.4415C101.655 86.2342 102.001 85.0589 102.597 84.006C102.838 83.5781 103.118 83.1741 103.435 82.7993C103.958 82.1785 104.572 81.6405 105.256 81.2038C106.413 80.4708 107.741 80.0495 109.109 79.9812C110.478 79.9129 111.841 80.1998 113.065 80.8139C114.289 81.428 115.333 82.3484 116.094 83.485C116.855 84.6216 117.307 85.9357 117.406 87.2988C117.411 87.4932 117.418 87.6855 117.418 87.8778Z"
    fill="#EFB7B9" />
  <path opacity="0.1"
    d="M110.761 106.79L110.734 107.034L107.049 101.288C106.664 102.196 106.449 102.804 106.449 102.804C106.449 102.804 97.6957 96.2314 99.0807 95.7894C99.546 95.6414 100.158 94.6469 100.763 93.3939L100.838 93.2347C101.48 95.1441 105.214 98.9607 106.768 100.49C106.947 100.667 107.096 100.813 107.211 100.919L107.448 101.14L107.572 101.263C108.137 101.845 110.521 104.408 110.761 106.79Z"
    fill="black" />
  <path
    d="M113.515 126.286L113.112 139.23L113.041 141.535C113.041 141.535 108.263 141.093 103.805 140.607C100.215 140.216 96.8315 139.794 96.3107 139.546C95.646 139.234 94.2211 138.994 93.0977 138.841C92.229 138.724 91.5465 138.662 91.5465 138.662C91.5465 138.662 91.2917 138.737 90.8994 138.808C90.0441 138.963 88.5417 139.089 87.6664 138.331C86.5474 137.36 89.4879 133.836 90.2214 132.989L90.3831 132.806L90.1061 130.253L89.386 123.635C89.386 123.635 88.9428 119.822 88.278 117.778C88.1003 117.197 87.972 116.602 87.8947 115.999C87.6477 114.132 87.7742 112.235 88.2669 110.417C88.4774 109.644 88.6111 108.853 88.6658 108.055C88.7766 106.01 95.0366 98.1098 96.5877 97.3916C97.2855 97.0671 97.847 96.5087 98.1743 95.8137C98.2824 95.5952 98.3635 95.3644 98.4159 95.1264C99.0807 92.2535 100.763 93.3939 100.763 93.3939C101.168 95.6414 107.446 101.59 107.446 101.59L107.57 101.714C108.193 102.351 110.967 105.339 110.77 107.889C110.73 108.838 110.872 109.786 111.188 110.682C112.465 114.692 113.199 118.854 113.371 123.058L113.515 126.286Z"
    fill="#DCE6F2" />
  <path opacity="0.1"
    d="M104.621 110.916C104.621 110.916 103.069 114.673 101.906 115.281C100.743 115.889 105.175 116.563 104.621 110.916Z"
    fill="black" />
  <path opacity="0.1"
    d="M105.784 117.933C105.784 117.933 102.238 118.375 102.238 119.038C102.238 119.701 105.784 117.933 105.784 117.933Z"
    fill="black" />
  <path opacity="0.1"
    d="M109.495 122.242C109.495 122.242 104.343 133.181 102.903 133.513C101.463 133.844 109.495 122.242 109.495 122.242Z"
    fill="black" />
  <path opacity="0.1"
    d="M107.348 102.145L103.087 103.993L97.9439 96.2446C98.052 96.0261 98.1331 95.7953 98.1854 95.5573C98.8502 92.6844 100.532 93.8248 100.532 93.8248C100.938 96.0723 107.215 102.021 107.215 102.021L107.348 102.145Z"
    fill="black" />
  <path
    d="M107.57 101.703L103.309 103.551L98.1655 95.8026C98.2735 95.5841 98.3546 95.3533 98.407 95.1153C99.0718 92.2424 100.754 93.3827 100.754 93.3827C101.159 95.6302 107.437 101.579 107.437 101.579L107.57 101.703Z"
    fill="#DCE6F2" />
  <path opacity="0.1"
    d="M113.041 141.535C113.041 141.535 108.263 141.093 103.805 140.607L111.805 142.695V145.126C111.454 145.442 111.151 145.606 110.954 145.522C110.032 145.135 102.509 143.919 102.509 143.919C102.509 143.919 98.1389 141.71 93.4234 139.058C93.309 138.994 93.198 138.925 93.091 138.85C92.5412 138.478 92.0674 138.004 91.695 137.455C90.8241 136.198 90.3987 134.582 90.2148 132.998C90.1114 132.09 90.0729 131.176 90.0995 130.262C90.1224 129.226 90.2171 128.193 90.3832 127.17C89.9271 123.209 89.7052 119.224 89.7184 115.237C89.7738 109.049 95.5906 106.839 95.5906 106.839C106.282 105.9 102.967 123.137 102.967 123.137C102.967 123.137 102.349 127.999 102.181 128.496C102.012 128.994 101.407 129.822 101.489 130.983C101.571 132.143 103.614 133.531 103.614 133.531C103.614 133.531 105.609 134.463 106.431 135.844C107.029 136.863 110.916 138.244 113.112 139.23L113.041 141.535Z"
    fill="black" />
  <path opacity="0.1"
    d="M116.622 82.9718C116.626 83.3358 116.55 83.6963 116.4 84.0282C116.287 84.299 116.155 84.5618 116.006 84.8149C115.773 85.2805 115.442 85.6905 115.035 86.0171C114.523 86.3817 113.876 86.4834 113.263 86.6315C112.649 86.7795 112.011 87.016 111.66 87.5375C111.471 87.8728 111.344 88.2398 111.286 88.6204C111.227 89.0007 111.075 89.3606 110.843 89.6679C110.722 89.8179 110.554 89.9237 110.367 89.9685C110.179 90.0133 109.982 89.9946 109.806 89.9154C109.62 89.7908 109.48 89.6104 109.405 89.4005C109.152 88.8326 109.088 88.2027 108.986 87.5906C108.884 86.9784 108.74 86.3486 108.363 85.8558C107.986 85.363 107.319 85.0381 106.728 85.2304C106.53 85.3064 106.349 85.4215 106.197 85.5689C106.045 85.7162 105.924 85.8927 105.841 86.0878C105.678 86.4784 105.565 86.8884 105.507 87.3077C105.232 88.8075 104.908 90.2985 104.534 91.7806C104.523 91.8414 104.498 91.8988 104.461 91.9486C104.402 92.0071 104.322 92.0404 104.239 92.0414C103.743 92.1077 103.267 91.7607 102.766 91.7983C102.714 91.8017 102.663 91.8098 102.613 91.8226C101.803 90.4192 101.446 88.8015 101.589 87.1887C101.732 85.5758 102.369 84.0459 103.413 82.8061L103.453 82.795C103.786 82.6771 104.089 82.4869 104.339 82.2381C104.659 81.9189 104.955 81.5769 105.225 81.2149L105.403 80.9939C105.912 80.382 106.492 79.8323 107.131 79.3564C107.305 79.2139 107.506 79.1059 107.721 79.0381C107.905 79.0024 108.093 78.9964 108.279 79.0205C109.044 79.1121 109.816 79.1409 110.586 79.1066C111.122 79.0225 111.663 78.9679 112.206 78.9431C113.608 78.9829 114.805 79.9707 115.691 81.0536C116.168 81.6083 116.593 82.247 116.622 82.9718Z"
    fill="black" />
  <path
    d="M101.563 84.216C101.255 84.7199 100.698 85.0624 100.49 85.6149C100.184 86.4171 100.701 87.416 100.226 88.132C100.069 88.3729 99.8098 88.5519 99.7211 88.8281C99.5705 89.2944 99.9826 89.7917 99.8763 90.2712C99.7699 90.7508 99.1361 91.1552 99.3045 91.6237C99.4041 91.828 99.5786 91.9863 99.792 92.0657C100.128 92.2578 100.514 92.3433 100.9 92.311C101.505 92.2115 101.955 91.6193 102.569 91.5751C103.067 91.5397 103.544 91.8845 104.04 91.8204C104.123 91.8175 104.202 91.7836 104.262 91.7254C104.299 91.6761 104.324 91.6185 104.335 91.5574C104.707 90.0768 105.032 88.5858 105.31 87.0845C105.366 86.6651 105.478 86.2549 105.642 85.8646C105.725 85.6699 105.846 85.4938 105.998 85.3465C106.151 85.1992 106.331 85.0839 106.528 85.0072C107.12 84.8171 107.785 85.1398 108.164 85.6326C108.543 86.1254 108.687 86.7552 108.789 87.3674C108.891 87.9795 108.955 88.6094 109.205 89.1773C109.281 89.388 109.423 89.569 109.609 89.6944C109.941 89.8867 110.389 89.7342 110.643 89.4469C110.877 89.1395 111.029 88.7786 111.087 88.3972C111.144 88.0173 111.271 87.651 111.461 87.3165C111.811 86.795 112.452 86.5585 113.063 86.4105C113.675 86.2624 114.32 86.1585 114.836 85.7939C115.242 85.4677 115.573 85.0585 115.807 84.5939C116.135 84.0238 116.44 83.405 116.414 82.7486C116.385 82.0326 115.959 81.3939 115.505 80.837C114.619 79.7542 113.42 78.7663 112.017 78.7288C111.475 78.7514 110.934 78.806 110.397 78.8923C109.627 78.9268 108.856 78.8973 108.091 78.8039C107.905 78.7817 107.716 78.7884 107.532 78.8238C107.317 78.8893 107.117 78.9976 106.945 79.142C106.306 79.6172 105.725 80.1661 105.214 80.7774C104.885 81.2124 104.529 81.6257 104.146 82.0149C103.896 82.2641 103.593 82.455 103.26 82.574C103.038 82.6359 102.817 82.5917 102.606 82.6602C101.953 82.8657 101.866 83.7166 101.563 84.216Z"
    fill="#965D7B" />
  <path opacity="0.1"
    d="M122.902 90.2248C121.129 90.5497 119.66 89.1199 118.847 88.0768C118.597 87.76 118.37 87.4262 118.167 87.0779L124.251 88.2226L124.497 88.269C124.497 88.269 125.616 89.7298 122.902 90.2248Z"
    fill="black" />
  <g opacity="0.1">
    <path opacity="0.1"
      d="M99.8762 89.6391C99.901 89.3501 99.857 89.0593 99.7477 88.7905C99.7477 88.8126 99.7277 88.8347 99.7211 88.8568C99.6258 89.153 99.7543 89.4601 99.8363 89.7673C99.8539 89.726 99.8673 89.6831 99.8762 89.6391Z"
      fill="black" />
    <path opacity="0.1"
      d="M100.404 86.0215C100.381 86.3271 100.387 86.6341 100.421 86.9386C100.444 86.633 100.438 86.326 100.404 86.0215Z"
      fill="black" />
    <path opacity="0.1"
      d="M115.793 83.9552C115.56 84.4208 115.229 84.8308 114.823 85.1574C114.311 85.522 113.666 85.6237 113.05 85.7718C112.434 85.9198 111.798 86.1563 111.448 86.6778C111.258 87.0132 111.131 87.3801 111.073 87.7607C111.016 88.142 110.863 88.5028 110.63 88.8104C110.375 89.0977 109.928 89.2524 109.595 89.0579C109.409 88.9325 109.268 88.7514 109.192 88.5408C108.942 87.9728 108.875 87.3452 108.775 86.7309C108.676 86.1165 108.527 85.4889 108.15 84.9961C107.774 84.5033 107.107 84.1784 106.515 84.3707C106.317 84.447 106.137 84.5623 105.985 84.7096C105.832 84.8569 105.711 85.0332 105.629 85.2281C105.465 85.6184 105.353 86.0286 105.296 86.448C105.02 87.9493 104.695 89.4402 104.321 90.9209C104.311 90.982 104.286 91.0396 104.248 91.0888C104.189 91.1471 104.11 91.181 104.027 91.1839C103.53 91.248 103.054 90.9032 102.555 90.9386C101.941 90.9828 101.492 91.575 100.887 91.6723C100.501 91.7068 100.114 91.6211 99.7787 91.427C99.6247 91.3609 99.4864 91.263 99.3732 91.1397C99.3213 91.2137 99.287 91.2985 99.2728 91.3877C99.2586 91.4769 99.2649 91.5682 99.2912 91.6546C99.3888 91.8603 99.564 92.0192 99.7787 92.0966C100.114 92.2907 100.501 92.3764 100.887 92.3419C101.492 92.2446 101.941 91.6524 102.555 91.6082C103.054 91.5728 103.53 91.9176 104.027 91.8535C104.11 91.8506 104.189 91.8167 104.248 91.7585C104.286 91.7092 104.311 91.6516 104.321 91.5905C104.694 90.1172 105.019 88.6262 105.296 87.1176C105.353 86.6982 105.465 86.288 105.629 85.8977C105.711 85.7028 105.832 85.5265 105.985 85.3792C106.137 85.2319 106.317 85.1166 106.515 85.0403C107.107 84.848 107.772 85.1729 108.15 85.6657C108.529 86.1585 108.673 86.7883 108.775 87.4005C108.877 88.0126 108.942 88.6424 109.192 89.2104C109.268 89.421 109.409 89.6021 109.595 89.7275C109.928 89.9198 110.375 89.7673 110.63 89.48C110.863 89.1724 111.016 88.8116 111.073 88.4303C111.131 88.0497 111.258 87.6828 111.448 87.3474C111.798 86.8259 112.438 86.5916 113.05 86.4414C113.661 86.2911 114.306 86.1916 114.823 85.827C115.229 85.5004 115.56 85.0904 115.793 84.6248C116.121 84.0568 116.427 83.4381 116.4 82.7817C116.396 82.6973 116.387 82.6132 116.374 82.5298C116.267 83.0356 116.07 83.5183 115.793 83.9552Z"
      fill="black" />
  </g>
  <path opacity="0.1"
    d="M116.409 84.0216C116.978 85.0292 117.314 86.1501 117.395 87.3033C115.421 86.1984 113.564 84.9851 112.627 84.563C110.994 83.8271 104.886 83.9376 102.591 84.0061C102.831 83.5783 103.111 83.1743 103.428 82.7995C103.953 82.1781 104.569 81.6401 105.256 81.2039C106.166 80.628 107.185 80.2432 108.249 80.073C109.313 79.9028 110.401 79.9508 111.446 80.2141C112.49 80.4775 113.471 80.9505 114.326 81.6044C115.181 82.2583 115.894 83.0793 116.42 84.0172L116.409 84.0216Z"
    fill="black" />
  <path opacity="0.1"
    d="M123.456 89.2878C122.39 89.6149 120.651 88.9828 118.847 88.0768C118.597 87.76 118.37 87.4262 118.167 87.0779L124.251 88.2226C124.655 88.4967 124.757 88.8878 123.456 89.2878Z"
    fill="black" />
  <path
    d="M109.967 76.3598C109.967 76.3598 104.151 76.0283 102.515 79.1774L102.252 81.9686L101.808 81.9199L101.72 83.8183C101.72 83.8183 110.61 83.4315 112.633 84.342C114.656 85.2525 120.943 89.8403 123.462 89.0669C125.982 88.2934 123.241 87.5752 123.241 87.5752C123.241 87.5752 119.773 86.11 119.773 84.9608C119.773 83.8116 118.913 77.741 109.967 76.3598Z"
    fill="#444053" />
  <path opacity="0.1"
    d="M98.7483 179.829C98.7483 179.829 102.46 183.42 104.067 183.144C104.067 183.144 99.5239 182.757 98.7483 179.829Z"
    fill="black" />
  <path opacity="0.1"
    d="M97.9727 181.493C97.9727 181.493 98.3051 183.34 99.1915 183.159C100.078 182.978 97.9727 181.493 97.9727 181.493Z"
    fill="black" />
  <path opacity="0.1"
    d="M103.79 212.37C103.79 212.37 98.52 216.458 99.4086 216.569C100.297 216.679 103.79 212.37 103.79 212.37Z"
    fill="black" />
  <path d="M110.838 131.228L127.901 128.459V144.569L111.689 143.723L110.838 131.228Z" fill="#2CB674" />
  <path opacity="0.05" d="M110.838 131.228L127.901 128.459V144.569L111.689 143.723L110.838 131.228Z" fill="black" />
  <path d="M127.901 128.459L148.363 129.986L147.231 144.006L127.901 144.569V128.459Z" fill="#2CB674" />
  <path opacity="0.1" d="M127.901 128.459L148.363 129.986L147.231 144.006L127.901 144.569V128.459Z" fill="black" />
  <path d="M134.192 123.542L127.901 128.459L148.363 129.986L151.707 124.954L134.192 123.542Z" fill="#2CB674" />
  <path d="M104.66 125.858L120.021 123.993L127.901 128.459L110.838 131.228L104.66 125.858Z" fill="#2CB674" />
  <path
    d="M131.642 132.642V154.669L123.649 153.851L120.172 153.497L119.113 153.387L115.638 153.031L110.838 152.54V131.228L127.899 132.386L131.642 132.642Z"
    fill="#2CB674" />
  <path d="M148.363 129.986V151.466L141.957 152.693L138.841 153.29L131.642 154.669V132.642L148.363 129.986Z"
    fill="#2CB674" />
  <path opacity="0.05"
    d="M148.363 129.986V151.466L141.957 152.693L138.841 153.29L131.642 154.669V132.642L148.363 129.986Z" fill="black" />
  <path d="M104.66 135.864L110.838 131.228L131.641 132.642L128.579 137.787L104.66 135.864Z" fill="#2CB674" />
  <path opacity="0.1" d="M104.66 135.864L110.838 131.228L131.641 132.642L128.579 137.787L104.66 135.864Z"
    fill="white" />
  <path d="M148.363 129.986L131.642 132.642L137.084 137.504L154.995 134.507L148.363 129.986Z" fill="#2CB674" />
  <path opacity="0.1" d="M148.363 129.986L131.642 132.642L137.084 137.504L154.995 134.507L148.363 129.986Z"
    fill="white" />
  <path opacity="0.1" d="M141.957 152.693L138.841 153.29V148.7L141.759 147.966L141.957 152.693Z" fill="white" />
  <path opacity="0.1" d="M123.649 150.814V153.851L120.172 153.497V150.814H123.649Z" fill="white" />
  <path opacity="0.1" d="M119.113 151.771V153.387L115.638 153.031V151.771H119.113Z" fill="white" />
  <path opacity="0.1"
    d="M129.55 149.203C127.168 152.242 119.301 150.143 119.301 150.143L113.455 144.061L112.662 143.237L114.213 140.364C114.213 140.364 114.656 140.509 115.397 140.766C119.314 142.132 131.555 146.646 129.55 149.203Z"
    fill="black" />
  <path
    d="M129.328 148.761C126.946 151.8 119.079 149.701 119.079 149.701L113.234 143.619L112.441 142.795L113.992 139.922C113.992 139.922 114.435 140.067 115.175 140.324C119.093 141.69 131.334 146.204 129.328 148.761Z"
    fill="#EFB7B9" />
  <path opacity="0.1"
    d="M115.166 140.324C114.843 141.252 114.02 142.627 113.225 143.619L112.432 142.795L113.983 139.922C113.983 139.922 114.428 140.067 115.166 140.324Z"
    fill="black" />
  <path
    d="M95.8122 105.955C95.8122 105.955 89.9953 108.165 89.94 114.353C89.9267 118.34 90.1487 122.325 90.6047 126.286C90.6047 126.286 88.9428 135.513 93.6516 138.165C98.3605 140.817 102.737 143.027 102.737 143.027C102.737 143.027 110.26 144.242 111.184 144.629C112.108 145.016 115.319 140.043 114.82 139.215C114.322 138.386 107.472 136.342 106.659 134.96C105.846 133.579 103.843 132.649 103.843 132.649C103.843 132.649 101.8 131.259 101.718 130.099C101.636 128.938 102.238 128.11 102.409 127.612C102.58 127.115 103.198 122.253 103.198 122.253C103.198 122.253 106.504 105.005 95.8122 105.955Z"
    fill="#DCE6F2" />
  <path opacity="0.1"
    d="M98.4713 126.441C98.4713 126.441 90.6048 127.325 91.2141 130.088C91.2141 130.088 94.2034 127.301 98.4713 126.441Z"
    fill="black" />
  <path opacity="0.1"
    d="M98.4712 127.546C98.4712 127.546 94.0062 130.806 94.826 131.027C95.6459 131.248 98.4712 127.546 98.4712 127.546Z"
    fill="black" />
  <path opacity="0.1"
    d="M100.466 128.872C100.466 128.872 99.1914 131.157 99.9116 131.038C100.632 130.918 100.466 128.872 100.466 128.872Z"
    fill="black" />
  <path
    d="M182.371 79.3078C182.371 79.3078 173.95 78.8017 174.934 84.6933C174.934 84.6933 174.737 85.7342 175.683 86.2072C175.683 86.2072 175.699 85.7652 176.547 85.9177C176.85 85.9684 177.157 85.9832 177.462 85.9619C177.877 85.9343 178.271 85.7721 178.584 85.5C178.584 85.5 180.953 84.5254 181.874 80.6624C181.874 80.6624 182.557 79.8182 182.539 79.6017L181.117 80.2094C181.117 80.2094 181.602 81.2326 181.218 82.0834C181.218 82.0834 181.174 80.247 180.899 80.289C180.844 80.289 180.161 80.6448 180.161 80.6448C180.161 80.6448 180.997 82.426 180.365 83.7232C180.365 83.7232 180.605 81.5265 179.9 80.7729L178.898 81.3564C178.898 81.3564 179.876 83.1972 179.213 84.7C179.213 84.7 179.384 82.395 178.688 81.4978L177.779 82.2028C177.779 82.2028 178.699 84.0193 178.138 85.2657C178.138 85.2657 178.065 82.5829 177.582 82.3796C177.582 82.3796 176.789 83.0778 176.669 83.3651C176.669 83.3651 177.296 84.6911 176.906 85.3784C176.906 85.3784 176.667 83.5906 176.463 83.5818C176.463 83.5818 175.672 84.7663 175.59 85.5707C175.628 84.8208 175.863 84.0939 176.27 83.4624C175.814 83.5484 175.394 83.7659 175.06 84.0878C175.06 84.0878 175.182 83.2503 176.465 83.1773C176.465 83.1773 177.13 82.2779 177.294 82.2227C177.294 82.2227 176.018 82.1166 175.244 82.4591C175.244 82.4591 175.925 81.6702 177.529 82.0171L178.415 81.2879C178.415 81.2879 176.736 81.0669 176.022 81.3122C176.022 81.3122 176.842 80.6138 178.657 81.1221L179.632 80.5409C179.632 80.5409 178.2 80.2315 177.347 80.3442C177.347 80.3442 178.247 79.8602 179.918 80.384L180.616 80.0724C180.616 80.0724 179.565 79.8669 179.26 79.8337C178.954 79.8006 178.936 79.7166 178.936 79.7166C179.601 79.6063 180.283 79.6828 180.906 79.9376C180.906 79.9376 182.402 79.4006 182.371 79.3078Z"
    fill="#2CB674" />
  <path opacity="0.1"
    d="M207.956 108.775C207.956 108.775 199.535 108.269 200.519 114.161C200.519 114.161 200.322 115.201 201.268 115.674C201.268 115.674 201.284 115.232 202.135 115.385C202.437 115.436 202.744 115.45 203.05 115.429C203.459 115.399 203.848 115.238 204.158 114.969C204.158 114.969 206.529 113.993 207.451 110.13C207.451 110.13 208.131 109.288 208.104 109.071L206.682 109.677C206.682 109.677 207.167 110.7 206.786 111.551C206.786 111.551 206.739 109.714 206.467 109.756C206.411 109.756 205.727 110.112 205.727 110.112C205.727 110.112 206.564 111.895 205.933 113.19C205.933 113.19 206.172 110.994 205.465 110.24L204.475 110.817C204.475 110.817 205.452 112.658 204.789 114.161C204.789 114.161 204.96 111.856 204.264 110.958L203.358 111.665C203.358 111.665 204.275 113.48 203.717 114.726C203.717 114.726 203.644 112.043 203.161 111.84C203.161 111.84 202.367 112.538 202.246 112.826C202.246 112.826 202.875 114.152 202.485 114.839C202.485 114.839 202.246 113.051 202.042 113.042C202.042 113.042 201.251 114.227 201.169 115.031C201.208 114.281 201.443 113.554 201.851 112.923C201.395 113.009 200.973 113.227 200.639 113.548C200.639 113.548 200.763 112.711 202.046 112.638C202.046 112.638 202.7 111.738 202.875 111.683C202.875 111.683 201.599 111.577 200.825 111.92C200.825 111.92 201.505 111.131 203.108 111.489L203.994 110.759C203.994 110.759 202.312 110.538 201.601 110.784C201.601 110.784 202.421 110.085 204.235 110.594L205.21 110.012C205.21 110.012 203.777 109.705 202.924 109.816C202.924 109.816 203.826 109.332 205.496 109.856L206.194 109.544C206.194 109.544 205.144 109.338 204.836 109.305C204.528 109.272 204.512 109.188 204.512 109.188C205.178 109.078 205.861 109.154 206.485 109.409C206.485 109.409 207.983 108.868 207.956 108.775Z"
    fill="#2CB674" />
  <path opacity="0.1"
    d="M156.801 103.544C156.801 103.544 158.74 95.3474 152.748 95.3186C152.748 95.3186 151.753 94.9474 151.126 95.796C151.126 95.796 151.554 95.8866 151.264 96.6954C151.163 96.9814 151.096 97.2781 151.064 97.5794C151.021 97.9902 151.114 98.4037 151.328 98.7573C151.328 98.7573 151.888 101.255 155.538 102.819C155.538 102.819 156.256 103.632 156.473 103.641L156.119 102.141C156.119 102.141 155.024 102.443 154.248 101.92C154.248 101.92 156.072 102.187 156.074 101.92C156.074 101.864 155.853 101.133 155.853 101.133C155.853 101.133 153.949 101.65 152.775 100.808C152.775 100.808 154.904 101.418 155.771 100.855L155.372 99.7672C155.372 99.7672 153.378 100.415 152.013 99.5065C152.013 99.5065 154.262 100.068 155.268 99.5374L154.725 98.5253C154.725 98.5253 152.775 99.1175 151.638 98.3551C151.638 98.3551 154.297 98.7396 154.585 98.3021C154.585 98.3021 154.031 97.4026 153.768 97.2347C153.768 97.2347 152.358 97.628 151.738 97.1264C151.738 97.1264 153.544 97.1949 153.586 97.0048C153.586 97.0048 152.551 96.0258 151.762 95.8048C152.497 95.9718 153.176 96.3267 153.732 96.8347C153.724 96.3715 153.581 95.9207 153.32 95.5374C153.32 95.5374 154.127 95.8026 153.985 97.0844C153.985 97.0844 154.76 97.88 154.785 98.0612C154.785 98.0612 155.106 96.8258 154.9 96.0059C154.9 96.0059 155.565 96.8104 154.938 98.3242L155.505 99.3297C155.505 99.3297 156.019 97.7164 155.888 96.9739C155.888 96.9739 156.44 97.8976 155.627 99.5949L156.037 100.653C156.037 100.653 156.584 99.2965 156.619 98.4435C156.619 98.4435 156.945 99.4114 156.141 100.965L156.331 101.703C156.331 101.703 156.713 100.706 156.797 100.41C156.881 100.114 156.967 100.112 156.967 100.112C156.964 100.784 156.773 101.442 156.416 102.013C156.416 102.013 156.706 103.555 156.801 103.544Z"
    fill="#2CB674" />
  <path opacity="0.1"
    d="M138.36 106.337C138.36 106.337 131.597 101.292 129.18 106.757C129.18 106.757 128.442 107.52 128.971 108.432C128.971 108.432 129.224 108.077 129.858 108.667C130.082 108.875 130.331 109.056 130.598 109.206C130.96 109.407 131.378 109.484 131.788 109.427C131.788 109.427 134.305 109.911 137.204 107.19C137.204 107.19 138.238 106.859 138.336 106.664L136.809 106.397C136.809 106.397 136.65 107.518 135.863 108.019C135.863 108.019 136.836 106.459 136.583 106.346C136.532 106.322 135.77 106.236 135.77 106.236C135.77 106.236 135.486 108.185 134.245 108.921C134.245 108.921 135.657 107.217 135.482 106.2L134.323 106.139C134.323 106.139 134.126 108.214 132.743 109.106C132.743 109.106 134.154 107.274 134.072 106.143L132.925 106.236C132.925 106.236 132.692 108.253 131.537 108.987C131.537 108.987 132.953 106.706 132.663 106.273C132.663 106.273 131.615 106.421 131.356 106.594C131.356 106.594 131.154 108.039 130.445 108.406C130.445 108.406 131.232 106.782 131.072 106.669C131.072 106.669 129.758 107.224 129.242 107.856C129.688 107.25 130.286 106.772 130.975 106.468C130.546 106.29 130.075 106.241 129.618 106.326C129.618 106.326 130.181 105.694 131.294 106.337C131.294 106.337 132.335 105.946 132.512 105.995C132.512 105.995 131.504 105.206 130.669 105.069C130.669 105.069 131.675 104.782 132.816 105.953L133.966 105.836C133.966 105.836 132.687 104.731 131.954 104.545C131.954 104.545 133.024 104.41 134.259 105.829L135.393 105.88C135.393 105.88 134.367 104.837 133.594 104.461C133.594 104.461 134.611 104.55 135.719 105.904L136.474 106.026C136.474 106.026 135.71 105.279 135.471 105.084C135.231 104.89 135.265 104.808 135.265 104.808C135.881 105.08 136.41 105.518 136.791 106.072C136.791 106.072 138.331 106.428 138.36 106.337Z"
    fill="#2CB674" />
  <path opacity="0.1"
    d="M160.876 59.4626C160.876 59.4626 154.113 54.4152 151.696 59.8825C151.696 59.8825 150.958 60.645 151.487 61.5577C151.487 61.5577 151.74 61.2019 152.374 61.7919C152.599 61.9991 152.849 62.1793 153.116 62.3289C153.478 62.5301 153.896 62.6077 154.306 62.5499C154.306 62.5499 156.823 63.0339 159.722 60.3113C159.722 60.3113 160.757 59.982 160.852 59.7853L159.325 59.5223C159.325 59.5223 159.168 60.6428 158.379 61.1444C158.379 61.1444 159.354 59.5842 159.101 59.4715C159.05 59.4472 158.288 59.361 158.288 59.361C158.288 59.361 157.996 61.3146 156.755 62.0461C156.755 62.0461 158.164 60.3422 157.991 59.3256L156.832 59.2638C156.832 59.2638 156.633 61.3389 155.252 62.2295C155.252 62.2295 156.664 60.3974 156.582 59.266L155.436 59.3588C155.436 59.3588 155.201 61.3787 154.047 62.1124C154.047 62.1124 155.465 59.8317 155.175 59.3986C155.175 59.3986 154.127 59.5466 153.867 59.719C153.867 59.719 153.666 61.1643 152.957 61.5311C152.957 61.5311 153.743 59.9068 153.584 59.7919C153.584 59.7919 152.27 60.3488 151.753 60.9809C152.199 60.3751 152.797 59.8965 153.486 59.593C153.057 59.414 152.585 59.3649 152.128 59.4516C152.128 59.4516 152.693 58.8196 153.805 59.4626C153.805 59.4626 154.847 59.0693 155.024 59.1201C155.024 59.1201 154.016 58.3312 153.18 58.1919C153.18 58.1919 154.184 57.9069 155.325 59.0759L156.475 58.9588C156.475 58.9588 155.199 57.8538 154.463 57.666C154.463 57.666 155.534 57.5334 156.77 58.9522L157.905 59.0008C157.905 59.0008 156.879 57.9577 156.103 57.5842C156.103 57.5842 157.123 57.6726 158.23 59.0273L158.984 59.1488C158.984 59.1488 158.217 58.4107 157.978 58.2207C157.739 58.0306 157.772 57.9466 157.772 57.9466C158.388 58.2186 158.917 58.6563 159.299 59.2107C159.299 59.2107 160.839 59.5466 160.876 59.4626Z"
    fill="#2CB674" />
  <path opacity="0.1"
    d="M186.718 65.8558C186.718 65.8558 184.015 57.8758 178.916 61.0117C178.916 61.0117 177.875 61.2327 177.793 62.2735C177.793 62.2735 178.203 62.1233 178.384 62.963C178.452 63.2618 178.554 63.5517 178.688 63.8271C178.871 64.1978 179.17 64.4993 179.539 64.6868C179.539 64.6868 181.338 66.51 185.274 65.9067C185.274 65.9067 186.313 66.2205 186.503 66.1122L185.396 65.0271C185.396 65.0271 184.629 65.8602 183.694 65.8271C183.694 65.8271 185.384 65.0934 185.245 64.8569C185.216 64.8105 184.638 64.3089 184.638 64.3089C184.638 64.3089 183.295 65.752 181.854 65.6569C181.854 65.6569 183.984 65.0514 184.418 64.11L183.501 63.405C183.501 63.405 182.158 65.0006 180.512 64.952C180.512 64.952 182.728 64.2426 183.288 63.2614L182.291 62.689C182.291 62.689 180.961 64.2205 179.583 64.1719C179.583 64.1719 182.047 63.0956 182.054 62.5741C182.054 62.5741 181.108 62.1034 180.795 62.0989C180.795 62.0989 179.807 63.1752 179.023 63.0779C179.023 63.0779 180.591 62.1829 180.525 61.9995C180.525 61.9995 179.129 61.7144 178.342 61.9443C179.054 61.6972 179.818 61.6401 180.558 61.7785C180.305 61.3893 179.944 61.0821 179.519 60.8945C179.519 60.8945 180.343 60.6934 180.895 61.8514C180.895 61.8514 181.976 62.1188 182.092 62.2581C182.092 62.2581 181.71 61.0404 181.101 60.4525C181.101 60.4525 182.092 60.7862 182.362 62.4017L183.377 62.9542C183.377 62.9542 182.958 61.3166 182.453 60.7443C182.453 60.7443 183.412 61.2393 183.621 63.1067L184.529 63.7895C184.529 63.7895 184.276 62.3487 183.851 61.6017C183.851 61.6017 184.64 62.2514 184.782 63.9951L185.333 64.521C185.333 64.521 185.13 63.4735 185.045 63.1774C184.961 62.8813 185.03 62.8614 185.03 62.8614C185.382 63.4347 185.569 64.094 185.568 64.7663C185.568 64.7663 186.641 65.9133 186.718 65.8558Z"
    fill="#2CB674" />
  <path opacity="0.1"
    d="M169.075 66.2493C169.075 66.2493 160.677 65.3167 161.37 71.2592C161.37 71.2592 161.12 72.289 162.035 72.8061C162.035 72.8061 162.073 72.3641 162.922 72.563C163.221 72.6274 163.528 72.6578 163.834 72.6536C164.249 72.6462 164.649 72.5042 164.976 72.2492C164.976 72.2492 167.393 71.394 168.521 67.5819C168.521 67.5819 169.244 66.7752 169.228 66.5564L167.777 67.0912C167.777 67.0912 168.22 68.1365 167.777 68.9675C167.777 68.9675 167.823 67.131 167.555 67.1598C167.5 67.1598 166.799 67.478 166.799 67.478C166.799 67.478 167.544 69.3012 166.848 70.5719C166.848 70.5719 167.198 68.3885 166.531 67.6017L165.501 68.1321C165.501 68.1321 166.387 70.0216 165.645 71.489C165.645 71.489 165.933 69.1951 165.284 68.2647L164.342 68.9277C164.342 68.9277 165.166 70.7863 164.544 72.0039C164.544 72.0039 164.608 69.3211 164.136 69.0934C164.136 69.0934 163.307 69.7564 163.172 70.0305C163.172 70.0305 163.733 71.3785 163.309 72.0525C163.309 72.0525 163.161 70.2559 162.966 70.2382C162.966 70.2382 162.115 71.3807 161.991 72.1873C162.068 71.4395 162.34 70.7248 162.78 70.1144C162.32 70.1778 161.889 70.3737 161.539 70.678C161.539 70.678 161.703 69.8492 162.988 69.8404C162.988 69.8404 163.686 68.9763 163.874 68.9299C163.874 68.9299 162.605 68.7597 161.814 69.0625C161.814 69.0625 162.534 68.3067 164.116 68.7465L165.049 68.0636C165.049 68.0636 163.362 67.7233 162.649 67.9443C162.649 67.9443 163.504 67.2813 165.29 67.889L166.294 67.3564C166.294 67.3564 164.878 66.9763 164.021 67.0448C164.021 67.0448 164.945 66.6029 166.587 67.215L167.3 66.9388C167.3 66.9388 166.261 66.6802 165.955 66.6316C165.649 66.583 165.638 66.499 165.638 66.499C166.308 66.4223 166.986 66.5325 167.597 66.8172C167.597 66.8172 169.091 66.3421 169.075 66.2493Z"
    fill="#2CB674" />
  <path opacity="0.1"
    d="M242.556 131.259C242.556 131.259 234.162 130.326 234.855 136.262C234.855 136.262 234.605 137.292 235.52 137.809C235.52 137.809 235.558 137.367 236.406 137.564C236.706 137.63 237.012 137.661 237.319 137.654C237.734 137.648 238.135 137.506 238.46 137.25C238.46 137.25 240.878 136.395 241.995 132.585C241.995 132.585 242.717 131.776 242.702 131.559L241.25 132.092C241.25 132.092 241.694 133.139 241.25 133.97C241.25 133.97 241.297 132.132 241.029 132.163C240.973 132.163 240.273 132.479 240.273 132.479C240.273 132.479 241.018 134.302 240.322 135.573C240.322 135.573 240.672 133.391 240.005 132.602L238.975 133.135C238.975 133.135 239.861 135.024 239.121 136.492C239.121 136.492 239.407 134.198 238.757 133.265L237.816 133.928C237.816 133.928 238.64 135.787 238.017 137.002C238.017 137.002 238.082 134.32 237.61 134.094C237.61 134.094 236.783 134.757 236.646 135.031C236.646 135.031 237.208 136.379 236.783 137.053C236.783 137.053 236.635 135.257 236.44 135.239C236.44 135.239 235.589 136.381 235.465 137.188C235.541 136.44 235.813 135.725 236.253 135.115C235.793 135.177 235.362 135.373 235.012 135.679C235.012 135.679 235.176 134.848 236.462 134.839C236.462 134.839 237.162 133.975 237.348 133.931C237.348 133.931 236.078 133.758 235.287 134.061C235.287 134.061 236.007 133.307 237.592 133.747L238.523 133.064C238.523 133.064 236.856 132.75 236.132 132.967C236.132 132.967 236.987 132.304 238.773 132.91L239.777 132.379C239.777 132.379 238.361 131.999 237.503 132.068C237.503 132.068 238.427 131.626 240.069 132.238L240.783 131.959C240.783 131.959 239.743 131.701 239.438 131.654C239.132 131.608 239.121 131.522 239.121 131.522C239.791 131.444 240.469 131.553 241.08 131.838C241.08 131.838 242.578 131.354 242.556 131.259Z"
    fill="#2CB674" />
  <path opacity="0.1"
    d="M255.388 139.077C255.388 139.077 246.994 138.147 247.687 144.081C247.687 144.081 247.439 145.111 248.352 145.628C248.352 145.628 248.39 145.186 249.239 145.385C249.538 145.45 249.843 145.479 250.149 145.473C250.562 145.465 250.961 145.324 251.286 145.071C251.286 145.071 253.701 144.216 254.818 140.403C254.818 140.403 255.543 139.597 255.525 139.378L254.074 139.911C254.074 139.911 254.517 140.958 254.074 141.789C254.074 141.789 254.12 139.953 253.852 139.981C253.797 139.981 253.097 140.297 253.097 140.297C253.097 140.297 253.841 142.121 253.145 143.391C253.145 143.391 253.495 141.21 252.828 140.423L251.798 140.954C251.798 140.954 252.684 142.843 251.944 144.311C251.944 144.311 252.23 142.017 251.581 141.086L250.639 141.749C250.639 141.749 251.463 143.608 250.843 144.825C250.843 144.825 250.905 142.14 250.433 141.915C250.433 141.915 249.606 142.578 249.469 142.852C249.469 142.852 250.032 144.2 249.606 144.874C249.606 144.874 249.458 143.077 249.263 143.06C249.263 143.06 248.412 144.202 248.29 145.009C248.367 144.261 248.638 143.547 249.077 142.936C248.617 142.999 248.186 143.195 247.836 143.5C247.836 143.5 248.002 142.669 249.287 142.662C249.287 142.662 249.985 141.798 250.174 141.751C250.174 141.751 248.904 141.581 248.113 141.884C248.113 141.884 248.833 141.128 250.417 141.568L251.348 140.885C251.348 140.885 249.682 140.571 248.957 140.788C248.957 140.788 249.813 140.125 251.599 140.733L252.602 140.2C252.602 140.2 251.186 139.82 250.329 139.888C250.329 139.888 251.253 139.446 252.895 140.059L253.608 139.782C253.608 139.782 252.569 139.524 252.266 139.475C251.962 139.427 251.946 139.343 251.946 139.343C252.616 139.266 253.294 139.376 253.905 139.661C253.905 139.661 255.41 139.172 255.388 139.077Z"
    fill="#2CB674" />
  <path opacity="0.1"
    d="M226.898 73.2194C226.898 73.2194 220.135 68.1741 217.717 73.6392C217.717 73.6392 216.979 74.4017 217.509 75.3144C217.509 75.3144 217.761 74.9586 218.395 75.5486C218.62 75.7569 218.868 75.9379 219.135 76.0878C219.497 76.2887 219.915 76.3663 220.325 76.3088C220.325 76.3088 222.842 76.7928 225.743 74.0724C225.743 74.0724 226.776 73.7409 226.873 73.5464L225.351 73.2724C225.351 73.2724 225.191 74.3928 224.405 74.8945C224.405 74.8945 225.378 73.3343 225.125 73.2216C225.074 73.1973 224.314 73.1111 224.314 73.1111C224.314 73.1111 224.028 75.0602 222.787 75.7961C222.787 75.7961 224.199 74.0923 224.024 73.0757L222.865 73.0138C222.865 73.0138 222.667 75.089 221.285 75.9818C221.285 75.9818 222.698 74.1497 222.614 73.0183L221.466 73.1111C221.466 73.1111 221.245 75.1287 220.079 75.8624C220.079 75.8624 221.497 73.5818 221.205 73.1486C221.205 73.1486 220.157 73.2967 219.898 73.4691C219.898 73.4691 219.698 74.9144 218.989 75.2812C218.989 75.2812 219.773 73.6569 219.614 73.5442C219.614 73.5442 218.3 74.0989 217.784 74.731C218.23 74.1258 218.827 73.6474 219.516 73.3431C219.088 73.1654 218.616 73.1163 218.16 73.2017C218.16 73.2017 218.725 72.5696 219.838 73.2127C219.838 73.2127 220.877 72.8216 221.054 72.8702C221.054 72.8702 220.046 72.0812 219.211 71.9442C219.211 71.9442 220.217 71.6569 221.358 72.8282L222.508 72.7111C222.508 72.7111 221.232 71.6061 220.496 71.4205C220.496 71.4205 221.566 71.2857 222.8 72.7044L223.937 72.7553C223.937 72.7553 222.909 71.7122 222.136 71.3365C222.136 71.3365 223.155 71.4249 224.261 72.7796L225.016 72.9011C225.016 72.9011 224.252 72.1542 224.012 71.9597C223.773 71.7652 223.809 71.7011 223.809 71.7011C224.424 71.9738 224.952 72.4114 225.333 72.9652C225.333 72.9652 226.869 73.31 226.898 73.2194Z"
    fill="#2CB674" />
  <path opacity="0.1"
    d="M232.123 109.643C232.123 109.643 229.792 101.548 224.549 104.455C224.549 104.455 223.499 104.616 223.368 105.663C223.368 105.663 223.784 105.533 223.928 106.379C223.982 106.683 224.071 106.98 224.194 107.263C224.359 107.644 224.644 107.961 225.005 108.165C225.005 108.165 226.72 110.066 230.678 109.641C230.678 109.641 231.702 109.999 231.897 109.902L230.849 108.766C230.849 108.766 230.044 109.566 229.114 109.491C229.114 109.491 230.833 108.828 230.7 108.592C230.674 108.543 230.12 108.015 230.12 108.015C230.12 108.015 228.715 109.398 227.279 109.237C227.279 109.237 229.435 108.729 229.909 107.814L229.023 107.067C229.023 107.067 227.609 108.6 225.967 108.481C225.967 108.481 228.201 107.869 228.817 106.916L227.846 106.3C227.846 106.3 226.439 107.769 225.074 107.659C225.074 107.659 227.585 106.693 227.616 106.174C227.616 106.174 226.689 105.661 226.377 105.643C226.377 105.643 225.342 106.673 224.556 106.541C224.556 106.541 226.164 105.716 226.107 105.531C226.107 105.531 224.724 105.184 223.928 105.376C224.649 105.163 225.413 105.141 226.144 105.312C225.91 104.912 225.563 104.589 225.147 104.384C225.147 104.384 225.98 104.218 226.477 105.4C226.477 105.4 227.543 105.714 227.653 105.86C227.653 105.86 227.328 104.625 226.745 104.013C226.745 104.013 227.72 104.388 227.917 106.015L228.905 106.614C228.905 106.614 228.56 104.956 228.081 104.373C228.081 104.373 229.016 104.91 229.143 106.784L230.029 107.506C230.029 107.506 229.841 106.057 229.451 105.297C229.451 105.297 230.211 105.982 230.273 107.727L230.8 108.28C230.8 108.28 230.645 107.224 230.578 106.923C230.512 106.622 230.578 106.58 230.578 106.58C230.906 107.168 231.064 107.836 231.033 108.508C231.033 108.508 232.043 109.697 232.123 109.643Z"
    fill="#2CB674" />
  <path opacity="0.1"
    d="M180.177 127.884C180.177 127.884 175.65 120.773 171.446 125.029C171.446 125.029 170.484 125.471 170.653 126.521C170.653 126.521 171.018 126.277 171.395 127.051C171.531 127.325 171.699 127.582 171.896 127.816C172.16 128.135 172.522 128.358 172.926 128.452C172.926 128.452 175.109 129.796 178.788 128.275C178.788 128.275 179.871 128.333 180.031 128.185L178.701 127.389C178.701 127.389 178.154 128.384 177.239 128.571C177.239 128.571 178.706 127.466 178.508 127.263C178.471 127.223 177.788 126.874 177.788 126.874C177.788 126.874 176.829 128.593 175.406 128.843C175.406 128.843 177.332 127.749 177.531 126.737L176.47 126.271C176.47 126.271 175.546 128.138 173.937 128.481C173.937 128.481 175.909 127.268 176.23 126.18L175.122 125.862C175.122 125.862 174.187 127.668 172.847 127.944C172.847 127.944 174.983 126.313 174.865 125.805C174.865 125.805 173.833 125.573 173.536 125.643C173.536 125.643 172.833 126.923 172.04 127.016C172.04 127.016 173.352 125.774 173.243 125.61C173.243 125.61 171.818 125.665 171.109 126.074C171.742 125.666 172.471 125.429 173.223 125.389C172.886 125.071 172.464 124.858 172.007 124.777C172.007 124.777 172.758 124.386 173.558 125.38C173.558 125.38 174.666 125.38 174.819 125.491C174.819 125.491 174.154 124.386 173.425 123.973C173.425 123.973 174.466 124.061 175.114 125.566L176.233 125.862C176.233 125.862 175.433 124.37 174.81 123.944C174.81 123.944 175.858 124.196 176.507 125.961L177.553 126.403C177.553 126.403 176.964 125.066 176.372 124.441C176.372 124.441 177.294 124.883 177.846 126.543L178.511 126.925C178.511 126.925 178.067 125.955 177.91 125.687C177.753 125.42 177.815 125.358 177.815 125.358C178.294 125.831 178.633 126.427 178.792 127.08C178.792 127.08 180.117 127.959 180.177 127.884Z"
    fill="#2CB674" />
  <path
    d="M209.93 91.5486C209.93 91.5486 205.625 84.3023 201.288 88.426C201.288 88.426 200.313 88.8459 200.451 89.8934C200.451 89.8934 200.821 89.6591 201.175 90.4437C201.302 90.7225 201.462 90.9852 201.652 91.226C201.906 91.5519 202.261 91.7849 202.662 91.8889C202.662 91.8889 204.8 93.2989 208.525 91.8889C208.525 91.8889 209.607 91.9796 209.771 91.8359L208.47 91.0006C208.47 91.0006 207.894 91.9751 206.972 92.1365C206.972 92.1365 208.472 91.0691 208.284 90.868C208.244 90.826 207.575 90.4547 207.575 90.4547C207.575 90.4547 206.562 92.1453 205.137 92.3508C205.137 92.3508 207.096 91.3166 207.324 90.3133L206.278 89.8227C206.278 89.8227 205.297 91.6635 203.677 91.9575C203.677 91.9575 205.687 90.8061 206.041 89.7298L204.947 89.3763C204.947 89.3763 203.954 91.1442 202.607 91.3873C202.607 91.3873 204.792 89.8227 204.69 89.3122C204.69 89.3122 203.666 89.047 203.36 89.1089C203.36 89.1089 202.618 90.3663 201.822 90.4348C201.822 90.4348 203.172 89.237 203.07 89.0691C203.07 89.0691 201.643 89.0801 200.923 89.4669C201.568 89.0788 202.303 88.8655 203.056 88.8481C202.729 88.5196 202.312 88.2937 201.858 88.1984C201.858 88.1984 202.622 87.8293 203.409 88.8481C203.409 88.8481 204.517 88.8857 204.665 88.9984C204.665 88.9984 204.038 87.8934 203.32 87.4381C203.32 87.4381 204.357 87.5575 204.958 89.0823L206.066 89.4138C206.066 89.4138 205.314 87.8978 204.703 87.4514C204.703 87.4514 205.744 87.7365 206.338 89.5199L207.369 89.9995C207.369 89.9995 206.821 88.6448 206.261 88.0105C206.261 88.0105 207.167 88.4812 207.67 90.1564L208.319 90.5586C208.319 90.5586 207.903 89.5751 207.756 89.3033C207.61 89.0315 207.672 88.9718 207.672 88.9718C208.137 89.4587 208.457 90.0646 208.596 90.7221C208.596 90.7221 209.866 91.6215 209.93 91.5486Z"
    fill="#2CB674" />
  <path
    d="M182.69 106.786C182.69 106.786 182.911 98.3662 177.046 99.553C177.046 99.553 175.996 99.3917 175.552 100.351C175.552 100.351 175.996 100.351 175.871 101.202C175.831 101.505 175.826 101.812 175.858 102.116C175.898 102.529 176.073 102.918 176.357 103.221C176.357 103.221 177.414 105.551 181.316 106.342C181.316 106.342 182.182 106.994 182.4 106.958L181.735 105.562C181.735 105.562 180.727 106.079 179.86 105.728C179.86 105.728 181.699 105.619 181.648 105.35C181.648 105.294 181.267 104.623 181.267 104.623C181.267 104.623 179.508 105.518 178.189 104.93C178.189 104.93 180.405 105.095 181.13 104.368L180.512 103.389C180.512 103.389 178.699 104.424 177.17 103.814C177.17 103.814 179.486 103.907 180.363 103.184L179.625 102.3C179.625 102.3 177.837 103.277 176.569 102.76C176.569 102.76 179.255 102.598 179.45 102.11C179.45 102.11 178.723 101.343 178.431 101.226C178.431 101.226 177.132 101.889 176.423 101.531C176.423 101.531 178.196 101.235 178.207 101.038C178.207 101.038 176.995 100.289 176.177 100.234C176.931 100.247 177.669 100.457 178.316 100.844C178.215 100.392 177.984 99.9794 177.651 99.6568C177.651 99.6568 178.495 99.7519 178.61 101.027C178.61 101.027 179.534 101.65 179.594 101.823C179.594 101.823 179.658 100.547 179.288 99.7872C179.288 99.7872 180.104 100.439 179.798 102.048L180.558 102.919C180.558 102.919 180.731 101.235 180.454 100.534C180.454 100.534 181.181 101.328 180.733 103.153L181.347 104.105C181.347 104.105 181.608 102.667 181.469 101.82C181.469 101.82 181.983 102.704 181.513 104.386L181.85 105.071C181.85 105.071 182.021 104.017 182.043 103.71C182.065 103.403 182.149 103.383 182.149 103.383C182.283 104.042 182.23 104.725 181.996 105.356C181.996 105.356 182.592 106.815 182.69 106.786Z"
    fill="#2CB674" />
  <path opacity="0.1"
    d="M192.387 213.773C195.683 213.773 198.354 213.323 198.354 212.768C198.354 212.212 195.683 211.762 192.387 211.762C189.091 211.762 186.419 212.212 186.419 212.768C186.419 213.323 189.091 213.773 192.387 213.773Z"
    fill="#2CB674" />
  <path opacity="0.1"
    d="M170.633 229.039C173.929 229.039 176.6 228.589 176.6 228.034C176.6 227.479 173.929 227.028 170.633 227.028C167.337 227.028 164.665 227.479 164.665 228.034C164.665 228.589 167.337 229.039 170.633 229.039Z"
    fill="#2CB674" />
  <path opacity="0.1"
    d="M58.1392 221.218C61.435 221.218 64.1067 220.768 64.1067 220.213C64.1067 219.657 61.435 219.207 58.1392 219.207C54.8434 219.207 52.1717 219.657 52.1717 220.213C52.1717 220.768 54.8434 221.218 58.1392 221.218Z"
    fill="#2CB674" />
  <path opacity="0.1"
    d="M215.896 228.034C219.191 228.034 221.863 227.584 221.863 227.028C221.863 226.473 219.191 226.023 215.896 226.023C212.6 226.023 209.928 226.473 209.928 227.028C209.928 227.584 212.6 228.034 215.896 228.034Z"
    fill="#2CB674" />
  <path
    d="M222.109 215.773C227.03 215.773 231.019 215.1 231.019 214.27C231.019 213.44 227.03 212.768 222.109 212.768C217.188 212.768 213.199 213.44 213.199 214.27C213.199 215.1 217.188 215.773 222.109 215.773Z"
    fill="#2CB674" />
  <path
    d="M225.803 211.811C226.21 211.481 226.506 211.035 226.652 210.533C226.763 210.025 226.545 209.417 226.06 209.232C225.515 209.024 224.932 209.4 224.489 209.78C224.046 210.16 223.543 210.595 222.964 210.516C223.261 210.247 223.483 209.906 223.609 209.526C223.735 209.146 223.76 208.74 223.682 208.348C223.657 208.185 223.588 208.032 223.483 207.906C223.179 207.583 222.632 207.722 222.269 207.976C221.116 208.785 220.795 210.346 220.788 211.751C220.673 211.245 220.771 210.717 220.768 210.204C220.766 209.691 220.622 209.099 220.181 208.83C219.91 208.679 219.605 208.603 219.295 208.609C218.776 208.591 218.198 208.642 217.846 209.02C217.402 209.488 217.52 210.277 217.901 210.788C218.282 211.298 218.865 211.627 219.401 211.985C219.83 212.241 220.197 212.589 220.474 213.004C220.505 213.062 220.531 213.123 220.551 213.185H223.8C224.527 212.82 225.201 212.358 225.803 211.811Z"
    fill="#2CB674" />
  <path
    d="M54.1328 215.539C54.1328 215.539 57.5343 215.435 58.5647 214.706C59.5951 213.976 63.8009 213.108 64.0557 214.277C64.3106 215.446 69.1701 220.087 65.3277 220.118C61.4853 220.149 56.3997 219.521 55.3759 218.898C54.3522 218.275 54.1328 215.539 54.1328 215.539Z"
    fill="#A8A8A8" />
  <path opacity="0.2"
    d="M65.392 219.711C61.5495 219.742 56.464 219.115 55.4402 218.491C54.6602 218.018 54.35 216.319 54.2458 215.534H54.1328C54.1328 215.534 54.3544 218.273 55.3715 218.894C56.3886 219.515 61.4808 220.144 65.3233 220.113C66.4312 220.113 66.8146 219.711 66.7946 219.128C66.6395 219.484 66.2163 219.705 65.392 219.711Z"
    fill="black" />
  <defs>
    <linearGradient id="paint0_linear_41_884" x1="86.913" y1="150.253" x2="156.079" y2="150.253"
      gradientUnits="userSpaceOnUse">
      <stop stop-color="#808080" stop-opacity="0.25" />
      <stop offset="0.54" stop-color="#808080" stop-opacity="0.12" />
      <stop offset="1" stop-color="#808080" stop-opacity="0.1" />
    </linearGradient>
  </defs>
</svg>
