<svg width="1075" height="585" viewBox="0 0 1075 585" fill="none" xmlns="http://www.w3.org/2000/svg">
  <g clip-path="url(#clip0_112_119)">
    <path
      d="M540.74 584.231C832.071 584.231 1068.24 568.596 1068.24 549.309C1068.24 530.023 832.071 514.388 540.74 514.388C249.41 514.388 13.2404 530.023 13.2404 549.309C13.2404 568.596 249.41 584.231 540.74 584.231Z"
      fill="#F2F2F2" />
    <path
      d="M520.523 167.01C434.578 167.01 372.872 222.149 372.872 350.808C372.872 496.621 434.578 535.218 520.523 535.218C606.467 535.218 671.85 492.945 671.85 350.808C671.85 198.868 606.467 167.01 520.523 167.01ZM521.087 486.818C461.561 486.818 430.462 451.895 430.462 350.902C430.462 261.79 462.834 214.797 522.361 214.797C581.888 214.797 614.26 245.665 614.26 350.902C614.26 449.349 580.614 486.818 521.087 486.818Z"
      fill="#2F2E41" />
    <path
      d="M321.408 433.517H285.874V328.878C285.874 323.32 283.666 317.99 279.736 314.06C275.806 310.13 270.476 307.922 264.918 307.922H256.592C253.84 307.922 251.115 308.464 248.572 309.517C246.03 310.57 243.72 312.114 241.774 314.06C239.828 316.005 238.284 318.316 237.231 320.858C236.178 323.401 235.636 326.126 235.636 328.878V433.517H135.406C133.344 433.517 131.317 432.984 129.522 431.97C127.726 430.956 126.224 429.495 125.159 427.729C124.095 425.963 123.505 423.951 123.447 421.89C123.389 419.829 123.865 417.788 124.828 415.965L230.911 215.185C232.233 212.681 233.035 209.936 233.267 207.115C233.499 204.293 233.158 201.454 232.262 198.768C231.367 196.082 229.937 193.605 228.058 191.488C226.179 189.37 223.89 187.655 221.33 186.446L215.068 183.489C210.205 181.192 204.646 180.853 199.54 182.541C194.435 184.23 190.174 187.816 187.639 192.559L58.2571 434.591C56.0539 438.713 54.9012 443.314 54.9012 447.987V447.987C54.9012 451.719 55.6362 455.414 57.0643 458.861C58.4923 462.309 60.5854 465.442 63.2241 468.08C65.8627 470.719 68.9952 472.812 72.4428 474.24C75.8904 475.668 79.5855 476.403 83.3171 476.403H235.636V542.57C235.636 545.869 236.286 549.135 237.548 552.183C238.81 555.231 240.661 558 242.993 560.332C245.326 562.665 248.095 564.515 251.142 565.777C254.19 567.04 257.456 567.689 260.755 567.689H260.755C264.054 567.689 267.32 567.04 270.368 565.777C273.415 564.515 276.184 562.665 278.517 560.332C280.849 558 282.699 555.231 283.962 552.183C285.224 549.135 285.874 545.869 285.874 542.57V476.403H321.408C327.095 476.403 332.549 474.144 336.571 470.123C340.592 466.101 342.851 460.647 342.851 454.96V454.96C342.851 449.273 340.592 443.819 336.571 439.797C332.549 435.776 327.095 433.517 321.408 433.517V433.517Z"
      fill="#2CB674" />
    <path
      d="M979.405 433.517H943.87V328.878C943.87 323.32 941.663 317.99 937.733 314.06C933.803 310.13 928.472 307.922 922.915 307.922H914.588C911.836 307.922 909.111 308.464 906.569 309.517C904.026 310.57 901.716 312.114 899.77 314.06C897.824 316.005 896.281 318.316 895.227 320.858C894.174 323.401 893.632 326.126 893.632 328.878V433.517H793.402C791.34 433.517 789.313 432.984 787.518 431.97C785.723 430.956 784.22 429.495 783.156 427.729C782.091 425.963 781.502 423.951 781.444 421.89C781.386 419.829 781.861 417.788 782.825 415.965L888.907 215.185C890.23 212.681 891.031 209.936 891.263 207.115C891.496 204.293 891.154 201.454 890.259 198.768C889.363 196.082 887.933 193.605 886.054 191.488C884.175 189.37 881.887 187.655 879.327 186.446L873.064 183.489C868.202 181.192 862.643 180.853 857.537 182.541C852.431 184.23 848.17 187.816 845.635 192.559L716.254 434.591C714.05 438.713 712.898 443.314 712.898 447.987V447.987C712.898 455.524 715.892 462.751 721.221 468.08C726.55 473.409 733.777 476.403 741.314 476.403H893.632V542.57C893.632 549.232 896.279 555.621 900.99 560.332C905.7 565.043 912.089 567.689 918.751 567.689V567.689C925.413 567.689 931.802 565.043 936.513 560.332C941.224 555.621 943.87 549.232 943.87 542.57V476.403H979.405C985.092 476.403 990.546 474.144 994.567 470.123C998.588 466.101 1000.85 460.647 1000.85 454.96V454.96C1000.85 449.273 998.588 443.819 994.567 439.797C990.546 435.776 985.092 433.517 979.405 433.517Z"
      fill="#2CB674" />
    <path fill-rule="evenodd" clip-rule="evenodd"
      d="M209.186 169.813C214.414 168.085 220.105 168.432 225.084 170.783L231.346 173.74C233.967 174.978 236.311 176.734 238.234 178.902C240.158 181.071 241.622 183.606 242.539 186.356C243.456 189.106 243.806 192.013 243.568 194.902C243.33 197.791 242.509 200.602 241.155 203.165L135.073 403.945C134.15 405.692 133.694 407.648 133.75 409.623C133.805 411.598 134.37 413.525 135.39 415.217C136.41 416.909 137.85 418.309 139.57 419.281C141.29 420.253 143.233 420.764 145.208 420.764H244.938V316.624C244.938 310.934 247.199 305.476 251.223 301.453C255.247 297.429 260.704 295.168 266.394 295.168H274.721C277.538 295.168 280.328 295.723 282.932 296.802C285.535 297.88 287.9 299.46 289.892 301.453C291.885 303.445 293.465 305.81 294.543 308.413C295.622 311.016 296.177 313.807 296.177 316.624V420.764H331.211C334.092 420.764 336.946 421.331 339.608 422.434C342.27 423.537 344.689 425.153 346.727 427.191C348.765 429.228 350.381 431.647 351.484 434.309C352.586 436.972 353.154 439.825 353.154 442.707C353.154 445.588 352.586 448.442 351.484 451.104C350.381 453.766 348.764 456.185 346.727 458.223C344.689 460.26 342.27 461.877 339.608 462.979C336.946 464.082 334.092 464.65 331.211 464.65H296.177V530.317C296.177 537.111 293.477 543.628 288.673 548.432C283.868 553.237 277.352 555.936 270.558 555.936C267.193 555.936 263.862 555.273 260.753 553.986C257.645 552.698 254.821 550.811 252.442 548.432C250.063 546.053 248.176 543.229 246.889 540.121C245.601 537.013 244.938 533.681 244.938 530.317V464.65H93.1197C85.4507 464.65 78.0959 461.603 72.6731 456.18C67.2503 450.758 64.2039 443.403 64.2039 435.734C64.2039 430.978 65.3768 426.296 67.6187 422.102L197 180.069C199.596 175.214 203.959 171.542 209.186 169.813ZM224.657 171.687C219.91 169.446 214.484 169.115 209.5 170.763C204.516 172.411 200.357 175.912 197.882 180.541L68.5007 422.573C66.3362 426.622 65.2039 431.143 65.2039 435.734C65.2039 443.138 68.145 450.238 73.3802 455.473C78.6155 460.709 85.7159 463.65 93.1197 463.65H245.938V530.317C245.938 533.55 246.575 536.751 247.812 539.738C249.05 542.725 250.863 545.439 253.149 547.725C255.435 550.011 258.149 551.825 261.136 553.062C264.123 554.299 267.324 554.936 270.557 554.936C277.087 554.936 283.349 552.342 287.966 547.725C292.583 543.108 295.177 536.846 295.177 530.317V463.65H331.211C333.961 463.65 336.684 463.108 339.225 462.055C341.766 461.003 344.075 459.46 346.02 457.516C347.965 455.571 349.507 453.262 350.56 450.721C351.612 448.18 352.154 445.457 352.154 442.707C352.154 439.956 351.612 437.233 350.56 434.692C349.507 432.151 347.965 429.842 346.02 427.898C344.075 425.953 341.766 424.41 339.225 423.358C336.684 422.305 333.961 421.764 331.211 421.764H295.177V316.624C295.177 313.938 294.647 311.278 293.619 308.796C292.591 306.314 291.085 304.059 289.185 302.16C287.286 300.26 285.031 298.753 282.549 297.725C280.067 296.697 277.407 296.168 274.721 296.168H266.394C260.969 296.168 255.766 298.323 251.93 302.16C248.094 305.996 245.938 311.199 245.938 316.624V421.764H145.208C143.06 421.764 140.949 421.208 139.078 420.152C137.208 419.095 135.642 417.573 134.534 415.733C133.425 413.893 132.81 411.798 132.75 409.651C132.69 407.504 133.185 405.377 134.189 403.478L240.271 202.698C241.562 200.254 242.345 197.574 242.571 194.82C242.798 192.066 242.464 189.294 241.59 186.672C240.716 184.051 239.32 181.633 237.486 179.566C235.652 177.499 233.418 175.824 230.919 174.644L224.657 171.687Z"
      fill="#1D1D35" />
    <path fill-rule="evenodd" clip-rule="evenodd"
      d="M875.76 169.813C880.987 168.085 886.679 168.432 891.658 170.783L897.92 173.74C900.541 174.978 902.884 176.734 904.808 178.902C906.732 181.071 908.196 183.606 909.113 186.356C910.03 189.106 910.38 192.013 910.142 194.902C909.904 197.791 909.083 200.602 907.729 203.165L801.647 403.945C800.724 405.692 800.268 407.648 800.323 409.623C800.379 411.598 800.944 413.525 801.964 415.217C802.984 416.909 804.424 418.309 806.144 419.281C807.864 420.253 809.806 420.764 811.782 420.764H911.512V316.624C911.512 313.807 912.067 311.016 913.145 308.413C914.224 305.81 915.804 303.445 917.796 301.453C919.789 299.46 922.154 297.88 924.757 296.802C927.36 295.723 930.15 295.168 932.968 295.168H941.294C946.985 295.168 952.442 297.429 956.466 301.453C960.49 305.476 962.75 310.934 962.75 316.624V420.764H997.784C1003.6 420.764 1009.19 423.075 1013.3 427.191C1017.42 431.306 1019.73 436.887 1019.73 442.707C1019.73 445.588 1019.16 448.442 1018.06 451.104C1016.95 453.766 1015.34 456.185 1013.3 458.223C1011.26 460.26 1008.84 461.877 1006.18 462.979C1003.52 464.082 1000.67 464.65 997.784 464.65H962.75V530.317C962.75 537.111 960.051 543.628 955.246 548.432C950.442 553.237 943.926 555.936 937.131 555.936C930.337 555.936 923.82 553.237 919.016 548.432C914.211 543.628 911.512 537.111 911.512 530.317V464.65H759.693C752.024 464.65 744.67 461.603 739.247 456.18C733.824 450.758 730.778 443.403 730.778 435.734C730.778 430.978 731.95 426.296 734.192 422.102L863.574 180.069C866.169 175.214 870.532 171.542 875.76 169.813ZM891.231 171.687C886.484 169.446 881.057 169.115 876.074 170.763C871.09 172.411 866.93 175.912 864.456 180.541L735.074 422.573C732.91 426.622 731.778 431.143 731.778 435.734C731.778 443.138 734.719 450.238 739.954 455.473C745.189 460.709 752.29 463.65 759.693 463.65H912.512V530.317C912.512 536.846 915.106 543.108 919.723 547.725C924.34 552.342 930.602 554.936 937.131 554.936C943.661 554.936 949.922 552.342 954.539 547.725C959.156 543.108 961.75 536.846 961.75 530.317V463.65H997.784C1000.53 463.65 1003.26 463.108 1005.8 462.055C1008.34 461.003 1010.65 459.46 1012.59 457.516C1014.54 455.571 1016.08 453.262 1017.13 450.721C1018.19 448.18 1018.73 445.457 1018.73 442.707C1018.73 437.152 1016.52 431.825 1012.59 427.898C1008.67 423.97 1003.34 421.764 997.784 421.764H961.75V316.624C961.75 311.199 959.595 305.996 955.759 302.16C951.923 298.323 946.72 296.168 941.294 296.168H932.968C930.282 296.168 927.622 296.697 925.14 297.725C922.658 298.753 920.403 300.26 918.504 302.16C916.604 304.059 915.097 306.314 914.069 308.796C913.041 311.278 912.512 313.938 912.512 316.624V421.764H811.782C809.634 421.764 807.522 421.208 805.652 420.152C803.782 419.095 802.216 417.573 801.107 415.733C799.999 413.893 799.384 411.798 799.324 409.651C799.263 407.504 799.759 405.377 800.762 403.478L906.845 202.698C908.136 200.254 908.918 197.574 909.145 194.82C909.372 192.066 909.038 189.294 908.164 186.672C907.29 184.051 905.894 181.633 904.06 179.566C902.226 177.499 899.992 175.824 897.493 174.644L891.231 171.687Z"
      fill="#1D1D35" />
    <path fill-rule="evenodd" clip-rule="evenodd"
      d="M433.697 199.304C459.982 169.306 497.045 155.482 540.128 155.482C583.147 155.482 621.144 163.452 648.373 190.549C675.599 217.643 691.955 263.754 691.955 339.78C691.955 410.915 675.595 457.167 648.382 485.632C621.164 514.103 583.176 524.69 540.128 524.69C497.09 524.69 460.013 515.026 433.709 487.007C407.413 458.997 391.977 412.742 391.977 339.78C391.977 275.377 407.421 229.293 433.697 199.304ZM434.449 199.963C408.386 229.709 392.977 275.524 392.977 339.78C392.977 412.631 408.394 458.581 434.438 486.323C460.473 514.056 497.222 523.69 540.128 523.69C583.024 523.69 620.699 513.141 647.659 484.941C674.623 456.736 690.955 410.782 690.955 339.78C690.955 263.866 674.619 218.078 647.668 191.258C620.719 164.441 583.053 156.482 540.128 156.482C497.266 156.482 460.504 170.227 434.449 199.963ZM474.107 238.686C458.654 261.455 450.567 295.365 450.567 339.874C450.567 390.341 458.341 424.19 473.464 445.415C488.558 466.598 511.035 475.29 540.693 475.29C570.341 475.29 593.463 465.967 609.198 444.455C624.957 422.909 633.365 389.059 633.365 339.874C633.365 287.283 625.271 253.394 609.837 232.656C594.433 211.959 571.642 204.269 541.966 204.269C512.355 204.269 489.541 215.946 474.107 238.686ZM473.28 238.124C488.914 215.089 512.05 203.269 541.966 203.269C571.817 203.269 594.976 211.014 610.639 232.059C626.273 253.065 634.365 287.228 634.365 339.874C634.365 389.137 625.95 423.245 610.005 445.045C594.035 466.879 570.571 476.29 540.693 476.29C510.824 476.29 487.988 467.521 472.65 445.995C457.342 424.51 449.567 390.4 449.567 339.874C449.567 295.271 457.666 261.129 473.28 238.124Z"
      fill="#1D1D35" />
    <path
      d="M1006.96 419.55C1009.99 420.651 1013.23 421.034 1016.44 420.668C1019.64 420.301 1022.71 419.196 1025.41 417.44C1028.12 415.683 1030.37 413.323 1032.01 410.545C1033.64 407.767 1034.61 404.647 1034.83 401.431C1035.06 398.216 1034.53 394.993 1033.3 392.015C1032.06 389.038 1030.15 386.388 1027.72 384.275C1025.28 382.162 1022.39 380.642 1019.27 379.837C1016.15 379.032 1012.88 378.963 1009.73 379.635L1010.25 390.347L1005.19 381.166C1000.21 383.504 996.368 387.72 994.501 392.889C993.838 394.7 993.435 396.595 993.304 398.519C992.984 403.032 994.144 407.527 996.609 411.322C999.073 415.118 1002.71 418.006 1006.96 419.55V419.55Z"
      fill="#FCDA68" />
    <path fill-rule="evenodd" clip-rule="evenodd"
      d="M1051.33 361.47C1044.37 379.195 1037.83 397.071 1031.71 415.098C1029.87 420.527 1028.09 426.069 1028.76 431.614C1029.23 435.461 1030.85 439.087 1032.66 442.612C1037.16 451.387 1042.69 459.597 1049.12 467.072C1049.67 467.713 1050.23 468.361 1050.8 469.017C1054.71 473.514 1058.91 478.354 1061.91 483.455C1065.36 489.31 1067.29 495.591 1065.36 502.18C1064.01 506.762 1061.05 510.355 1057.49 513.448C1054.69 515.875 1051.5 518.021 1048.41 520.096C1047.58 520.657 1046.75 521.213 1045.94 521.769C1042.14 524.374 1038.34 527.666 1035.72 531.414C1033.09 535.158 1031.67 539.317 1032.53 543.696L1031.55 543.889C1030.62 539.158 1032.18 534.724 1034.9 530.84C1037.61 526.959 1041.52 523.588 1045.38 520.944C1046.2 520.377 1047.04 519.813 1047.89 519.246C1050.97 517.175 1054.09 515.076 1056.83 512.693C1060.31 509.666 1063.13 506.226 1064.4 501.899C1066.22 495.684 1064.43 489.7 1061.05 483.963C1058.1 478.947 1053.96 474.183 1050.05 469.678C1049.48 469.021 1048.92 468.37 1048.36 467.724L1048.36 467.724C1041.88 460.19 1036.31 451.914 1031.77 443.069L1031.77 443.068C1029.96 439.529 1028.26 435.769 1027.77 431.734C1027.07 425.929 1028.93 420.175 1030.77 414.777C1036.89 396.735 1043.43 378.844 1050.4 361.104L1051.33 361.47Z"
      fill="#1D1D35" />
    <path fill-rule="evenodd" clip-rule="evenodd"
      d="M1010.49 376.387C1013.71 375.699 1017.06 375.77 1020.25 376.595C1023.45 377.419 1026.41 378.975 1028.9 381.139C1031.39 383.303 1033.35 386.017 1034.61 389.065C1035.88 392.114 1036.42 395.415 1036.19 398.708C1035.96 402.001 1034.97 405.195 1033.3 408.04C1031.62 410.885 1029.31 413.302 1026.54 415.101C1023.78 416.899 1020.63 418.031 1017.35 418.406C1014.07 418.781 1010.75 418.389 1007.65 417.261C1003.29 415.68 999.57 412.723 997.047 408.836C994.523 404.95 993.335 400.348 993.663 395.726C993.797 393.756 994.21 391.814 994.889 389.96C996.801 384.667 1000.74 380.349 1005.83 377.956L1006.25 377.756L1010.51 385.46L1010.07 376.476L1010.49 376.387ZM1007.99 416.322C1010.95 417.396 1014.11 417.77 1017.24 417.412C1020.36 417.055 1023.36 415.977 1026 414.262C1028.64 412.548 1030.84 410.244 1032.44 407.533C1034.03 404.822 1034.97 401.777 1035.19 398.639C1035.41 395.5 1034.9 392.354 1033.69 389.449C1032.49 386.543 1030.62 383.957 1028.25 381.894C1025.87 379.832 1023.05 378.349 1020 377.563C1017.09 376.812 1014.06 376.717 1011.11 377.281L1011.71 389.717L1005.83 379.065C1001.18 381.382 997.598 385.403 995.829 390.301L995.828 390.303C995.181 392.069 994.788 393.918 994.66 395.795L994.66 395.796C994.348 400.201 995.48 404.588 997.885 408.292C1000.29 411.996 1003.84 414.815 1007.99 416.322Z"
      fill="#1D1D35" />
    <path
      d="M1029.49 357.588C1030.68 354.308 1032.68 351.38 1035.3 349.074C1037.91 346.767 1041.07 345.157 1044.47 344.391L1046.19 354.575L1049.36 343.879C1053.78 343.944 1058.05 345.41 1061.58 348.064C1065.1 350.718 1067.69 354.424 1068.97 358.645C1070.25 362.867 1070.16 367.386 1068.7 371.551C1067.25 375.716 1064.51 379.31 1060.87 381.815C1057.24 384.321 1052.91 385.607 1048.5 385.489C1044.09 385.371 1039.83 383.855 1036.34 381.159C1032.85 378.463 1030.3 374.727 1029.07 370.49C1027.84 366.253 1027.99 361.735 1029.49 357.588H1029.49Z"
      fill="#FCDA68" />
    <path fill-rule="evenodd" clip-rule="evenodd"
      d="M1050.14 339.696L1050.52 339.701C1055.03 339.768 1059.41 341.269 1063.02 343.987C1066.63 346.705 1069.28 350.499 1070.59 354.822C1071.9 359.145 1071.81 363.773 1070.32 368.038C1068.83 372.303 1066.02 375.984 1062.3 378.549C1058.58 381.115 1054.14 382.432 1049.63 382.311C1045.11 382.191 1040.75 380.638 1037.18 377.877C1033.6 375.116 1030.99 371.29 1029.73 366.952C1028.47 362.614 1028.63 357.987 1030.17 353.74L1030.29 353.411H1030.29C1031.52 350.185 1033.52 347.305 1036.11 345.021C1038.79 342.659 1042.02 341.01 1045.51 340.225L1046.02 340.11L1047.47 348.686L1050.14 339.696ZM1050.88 340.71L1047.2 353.108L1045.21 341.324C1042.09 342.113 1039.19 343.637 1036.77 345.771C1034.21 348.022 1032.27 350.88 1031.11 354.081L1031.08 354.153C1029.64 358.181 1029.5 362.563 1030.69 366.673C1031.9 370.808 1034.38 374.454 1037.79 377.085C1041.2 379.717 1045.35 381.197 1049.66 381.312C1053.96 381.427 1058.19 380.171 1061.73 377.726C1065.28 375.281 1067.95 371.773 1069.37 367.708C1070.79 363.644 1070.88 359.233 1069.63 355.113C1068.38 350.993 1065.86 347.376 1062.42 344.786C1059.08 342.271 1055.05 340.85 1050.88 340.71Z"
      fill="#1D1D35" />
    <path
      d="M1045.09 467.604C1049.89 469.347 1055.17 469.261 1059.91 467.362C1064.66 465.464 1068.54 461.886 1070.82 457.311C1073.09 452.735 1073.6 447.482 1072.26 442.553C1070.91 437.623 1067.79 433.362 1063.51 430.581L1061.07 438.801L1059.33 428.497C1059.32 428.489 1059.3 428.482 1059.28 428.477C1056.71 427.543 1053.98 427.125 1051.25 427.245C1048.52 427.366 1045.84 428.024 1043.36 429.182C1040.89 430.339 1038.66 431.973 1036.82 433.991C1034.97 436.008 1033.54 438.369 1032.61 440.939C1031.68 443.509 1031.26 446.238 1031.38 448.969C1031.51 451.701 1032.16 454.381 1033.32 456.857C1034.48 459.333 1036.12 461.557 1038.14 463.401C1040.15 465.245 1042.52 466.673 1045.09 467.604H1045.09Z"
      fill="#FCDA68" />
    <path fill-rule="evenodd" clip-rule="evenodd"
      d="M1060.43 424.278C1060.47 424.289 1060.5 424.304 1060.54 424.32L1060.77 424.432L1062.19 432.864L1064.21 426.074L1064.77 426.437C1069.16 429.285 1072.35 433.648 1073.73 438.696C1075.11 443.744 1074.58 449.123 1072.25 453.809C1069.92 458.494 1065.95 462.158 1061.09 464.102C1056.26 466.035 1050.89 466.133 1045.99 464.38L1045.91 464.35C1043.28 463.396 1040.86 461.934 1038.79 460.046C1036.72 458.157 1035.05 455.88 1033.86 453.344C1032.67 450.809 1032 448.064 1031.87 445.267C1031.75 442.47 1032.17 439.676 1033.13 437.044C1034.08 434.412 1035.55 431.994 1037.44 429.929C1039.33 427.863 1041.61 426.189 1044.14 425.004C1046.68 423.819 1049.42 423.145 1052.22 423.021C1055.01 422.898 1057.8 423.325 1060.43 424.278ZM1059.88 425.143C1057.44 424.287 1054.85 423.906 1052.26 424.02C1049.6 424.138 1046.98 424.781 1044.57 425.91C1042.15 427.04 1039.98 428.634 1038.18 430.603C1036.37 432.572 1034.98 434.877 1034.07 437.385C1033.16 439.894 1032.75 442.557 1032.87 445.222C1032.99 447.888 1033.64 450.504 1034.77 452.921C1035.9 455.337 1037.49 457.508 1039.46 459.307C1041.42 461.095 1043.71 462.482 1046.2 463.391C1046.21 463.397 1046.23 463.403 1046.25 463.409C1050.94 465.11 1056.09 465.026 1060.72 463.174C1065.35 461.321 1069.14 457.829 1071.36 453.363C1073.58 448.898 1074.08 443.771 1072.76 438.96C1071.51 434.365 1068.68 430.366 1064.78 427.651L1061.92 437.288L1059.88 425.143Z"
      fill="#1D1D35" />
    <path
      d="M1023.42 502.167C1024.25 506.867 1026.66 511.14 1030.27 514.27C1033.87 517.4 1038.44 519.195 1043.21 519.356C1047.98 519.517 1052.66 518.032 1056.46 515.152C1060.27 512.272 1062.97 508.171 1064.11 503.537C1065.25 498.903 1064.76 494.018 1062.73 489.701C1060.69 485.384 1057.24 481.897 1052.94 479.826C1048.64 477.755 1043.76 477.225 1039.11 478.326C1034.47 479.426 1030.34 482.089 1027.43 485.87L1036.7 499.826L1024.03 492.418C1023.05 495.572 1022.84 498.915 1023.42 502.167V502.167Z"
      fill="#FCDA68" />
    <path fill-rule="evenodd" clip-rule="evenodd"
      d="M1039.85 475.081C1044.61 473.955 1049.61 474.497 1054.01 476.618C1058.41 478.739 1061.95 482.309 1064.03 486.73C1066.12 491.151 1066.62 496.153 1065.45 500.899C1064.28 505.644 1061.52 509.844 1057.62 512.793C1053.72 515.742 1048.93 517.262 1044.05 517.098C1039.16 516.933 1034.49 515.095 1030.8 511.89C1027.11 508.685 1024.63 504.309 1023.79 499.496C1023.19 496.166 1023.41 492.742 1024.41 489.512L1024.6 488.912L1035.95 495.547L1027.67 483.09L1027.89 482.807C1030.88 478.936 1035.1 476.208 1039.85 475.081ZM1024.28 499.409L1024.77 499.323C1025.58 503.91 1027.94 508.08 1031.45 511.135C1034.97 514.189 1039.43 515.942 1044.08 516.098C1048.74 516.255 1053.3 514.807 1057.02 511.996C1060.73 509.185 1063.37 505.182 1064.48 500.66C1065.59 496.137 1065.12 491.37 1063.13 487.156C1061.15 482.943 1057.77 479.54 1053.58 477.519C1049.38 475.498 1044.62 474.98 1040.08 476.054C1035.67 477.101 1031.73 479.596 1028.9 483.136L1039.17 498.589L1025.19 490.415C1024.39 493.312 1024.24 496.356 1024.77 499.321L1024.28 499.409Z"
      fill="#1D1D35" />
    <path
      d="M9.10438 470.249C11.0947 470.972 13.2258 471.224 15.3299 470.983C17.4339 470.742 19.4533 470.016 21.2289 468.862C23.0044 467.708 24.4877 466.157 25.5617 464.332C26.6357 462.507 27.2711 460.457 27.4178 458.345C27.5645 456.232 27.2185 454.114 26.407 452.158C25.5956 450.202 24.3409 448.461 22.7419 447.072C21.1429 445.684 19.2432 444.686 17.1926 444.157C15.142 443.628 12.9966 443.582 10.9254 444.024L11.2676 451.062L7.93778 445.03C4.6697 446.566 2.14497 449.336 0.918418 452.732C0.482816 453.922 0.218002 455.167 0.131877 456.431C-0.0783061 459.396 0.683903 462.35 2.303 464.843C3.92209 467.337 6.30983 469.234 9.10438 470.249V470.249Z"
      fill="#FCDA68" />
    <path fill-rule="evenodd" clip-rule="evenodd"
      d="M38.4174 432.152C33.8434 443.795 29.5474 455.538 25.5293 467.379C24.3184 470.948 23.1653 474.549 23.597 478.144C24.015 480.661 24.8736 483.085 26.1334 485.304L26.1386 485.314L26.1435 485.323C29.094 491.076 32.7161 496.459 36.9338 501.36C37.2957 501.78 37.665 502.206 38.0388 502.636C40.602 505.59 43.3731 508.783 45.3564 512.149C47.6347 516.016 48.9247 520.193 47.6361 524.587C46.7404 527.641 44.7649 530.028 42.414 532.071C40.5697 533.674 38.4608 535.091 36.431 536.455C35.8836 536.823 35.3418 537.187 34.8126 537.55C32.3248 539.256 29.8459 541.405 28.1373 543.844C26.431 546.28 25.5182 548.966 26.0713 551.783L25.0901 551.975C24.4678 548.806 25.514 545.846 27.3183 543.27C29.1204 540.697 31.7038 538.469 34.2471 536.725C34.7939 536.35 35.3474 535.978 35.9023 535.605C37.925 534.246 39.9653 532.874 41.7581 531.316C44.0334 529.339 45.8556 527.105 46.6765 524.305C47.855 520.287 46.7041 516.406 44.4949 512.657C42.5618 509.376 39.8575 506.259 37.2885 503.298C36.9138 502.866 36.542 502.437 36.1759 502.012L36.1759 502.012C31.9089 497.054 28.2442 491.609 25.2585 485.789C23.9417 483.467 23.0447 480.93 22.6086 478.296L22.6068 478.286L22.6055 478.275C22.1388 474.416 23.3806 470.599 24.5823 467.058C28.6055 455.201 32.9069 443.444 37.4867 431.787L38.4174 432.152Z"
      fill="#1D1D35" />
    <path fill-rule="evenodd" clip-rule="evenodd"
      d="M11.3843 441.723C13.5312 441.265 15.7551 441.312 17.8806 441.861C20.0062 442.409 21.9753 443.444 23.6328 444.883C25.2903 446.322 26.5909 448.127 27.432 450.154C28.2731 452.182 28.6317 454.377 28.4796 456.567C28.3276 458.757 27.669 460.882 26.5557 462.774C25.4424 464.666 23.905 466.273 22.0645 467.47C20.224 468.666 18.1307 469.418 15.9498 469.668C13.7688 469.917 11.5597 469.657 9.49667 468.907C6.6 467.855 4.12502 465.888 2.44675 463.303C0.768563 460.719 -0.0215228 457.658 0.196194 454.584C0.285558 453.274 0.560095 451.983 1.01163 450.749C2.28334 447.229 4.90056 444.357 8.28826 442.765L8.71222 442.566L11.2267 447.121L10.9684 441.811L11.3843 441.723ZM9.83834 467.967C11.7559 468.664 13.8091 468.906 15.8362 468.674C17.8633 468.442 19.8088 467.743 21.5195 466.631C23.2301 465.519 24.6591 464.025 25.6938 462.267C26.7286 460.508 27.3407 458.533 27.4821 456.498C27.6234 454.462 27.29 452.422 26.5083 450.538C25.7265 448.653 24.5177 446.976 22.9772 445.638C21.4366 444.3 19.6064 443.339 17.6308 442.829C15.7922 442.354 13.8745 442.284 12.0089 442.619L12.4349 451.379L8.2936 443.877C5.34939 445.391 3.08025 447.965 1.9518 451.09L1.95104 451.092C1.53169 452.237 1.27675 453.436 1.19383 454.653L1.19374 454.654C0.991231 457.511 1.72556 460.357 3.28544 462.759C4.84533 465.161 7.14597 466.989 9.83834 467.967Z"
      fill="#1D1D35" />
    <path
      d="M23.9093 429.539C24.6904 427.384 26.0013 425.46 27.7213 423.945C29.4413 422.429 31.515 421.371 33.7514 420.868L34.8773 427.559L36.9646 420.532C39.8628 420.575 42.6724 421.538 44.9876 423.281C47.3029 425.025 49.0041 427.46 49.8455 430.233C50.687 433.007 50.6253 435.976 49.6692 438.713C48.7131 441.449 46.9122 443.811 44.5264 445.457C42.1406 447.103 39.2935 447.948 36.396 447.87C33.4986 447.793 30.7007 446.796 28.4064 445.025C26.1121 443.254 24.4401 440.799 23.6318 438.016C22.8235 435.232 22.9206 432.264 23.9093 429.539V429.539Z"
      fill="#FCDA68" />
    <path fill-rule="evenodd" clip-rule="evenodd"
      d="M37.3441 417.61L37.7229 417.615C40.7271 417.66 43.6394 418.658 46.0393 420.466C48.4392 422.273 50.2026 424.797 51.0749 427.672C51.9471 430.547 51.8831 433.625 50.892 436.461C49.901 439.298 48.0342 441.746 45.5612 443.452C43.0882 445.158 40.1369 446.034 37.1335 445.954C34.1301 445.873 31.2299 444.841 28.8517 443.005C26.4735 441.169 24.7404 438.624 23.9025 435.739C23.0646 432.854 23.1653 429.777 24.1901 426.952C24.9998 424.718 26.3587 422.724 28.1416 421.153C29.9246 419.582 32.0742 418.486 34.3925 417.964L34.9077 417.848L35.7632 422.932L37.3441 417.61ZM25.1302 427.293C24.1777 429.918 24.084 432.778 24.8628 435.46C25.6416 438.142 27.2524 440.507 29.4628 442.213C31.6732 443.92 34.3687 444.88 37.1602 444.954C39.9518 445.029 42.6948 444.215 44.9933 442.629C47.2918 441.043 49.0269 438.768 49.948 436.131C50.8691 433.495 50.9286 430.634 50.1179 427.962C49.3072 425.29 47.6682 422.945 45.4377 421.265C43.3077 419.66 40.7435 418.742 38.0853 418.626L35.4931 427.353L34.0986 419.066C32.1404 419.59 30.3273 420.56 28.8027 421.904C27.1457 423.363 25.8827 425.217 25.1302 427.293Z"
      fill="#1D1D35" />
    <path
      d="M34.1545 501.822C37.3109 502.967 40.7783 502.91 43.8957 501.663C47.0131 500.416 49.5625 498.065 51.0581 495.059C52.5537 492.052 52.8909 488.601 52.0053 485.362C51.1197 482.124 49.0733 479.324 46.2561 477.497L44.6522 482.897L43.5149 476.127C43.5037 476.122 43.492 476.118 43.4801 476.114C41.7918 475.5 39.999 475.225 38.2042 475.304C36.4095 475.384 34.648 475.816 33.0203 476.576C31.3926 477.336 29.9308 478.41 28.7182 479.736C27.5057 481.061 26.5663 482.613 25.9536 484.302C25.341 485.99 25.0672 487.783 25.1478 489.578C25.2284 491.373 25.6619 493.134 26.4235 494.761C27.1852 496.388 28.2599 497.849 29.5864 499.061C30.913 500.272 32.4652 501.21 34.1545 501.822V501.822Z"
      fill="#FCDA68" />
    <path fill-rule="evenodd" clip-rule="evenodd"
      d="M44.2901 473.193C44.3202 473.202 44.3498 473.214 44.3788 473.228L44.6152 473.339L45.4382 478.238L46.6178 474.266L47.1787 474.63C50.0989 476.524 52.2201 479.426 53.1381 482.783C54.0561 486.14 53.7066 489.718 52.1563 492.834C50.6061 495.95 47.9634 498.387 44.732 499.68C41.5005 500.972 37.9064 501.031 34.6345 499.844C31.1009 498.562 28.2212 495.929 26.6289 492.524C25.0366 489.119 24.8623 485.221 26.1441 481.687C27.426 478.154 30.0591 475.274 33.4642 473.682C35.1503 472.893 36.9751 472.445 38.8345 472.361C40.69 472.278 42.5437 472.561 44.2901 473.193ZM43.7211 474.053C42.1652 473.522 40.5229 473.287 38.8792 473.36C37.151 473.438 35.4549 473.855 33.8878 474.587C30.723 476.067 28.2756 478.744 27.0842 482.028C25.8928 485.313 26.0548 488.936 27.5348 492.101C29.0147 495.265 31.6912 497.713 34.9756 498.904C38.0165 500.007 41.3571 499.953 44.3605 498.751C47.3639 497.55 49.8201 495.285 51.261 492.389C52.7019 489.492 53.0267 486.167 52.1735 483.047C51.3797 480.144 49.6178 477.607 47.1905 475.85L45.1674 482.662L43.7211 474.053Z"
      fill="#1D1D35" />
    <path
      d="M19.9189 524.53C20.4616 527.618 22.0497 530.426 24.4167 532.482C26.7838 534.538 29.7859 535.718 32.9195 535.824C36.0532 535.929 39.1278 534.954 41.6278 533.062C44.1278 531.169 45.9012 528.475 46.6504 525.43C47.3996 522.386 47.0792 519.176 45.7429 516.34C44.4065 513.503 42.1355 511.213 39.3108 509.852C36.486 508.491 33.2793 508.143 30.2283 508.866C27.1774 509.589 24.4678 511.339 22.5539 513.822L28.6462 522.992L20.3219 518.125C19.6764 520.197 19.5382 522.394 19.9189 524.53V524.53Z"
      fill="#FCDA68" />
    <path fill-rule="evenodd" clip-rule="evenodd"
      d="M30.6761 506.567C33.8387 505.818 37.1628 506.179 40.0909 507.589C43.019 509 45.3731 511.374 46.7583 514.314C48.1435 517.255 48.4757 520.582 47.699 523.738C46.9224 526.894 45.0842 529.687 42.4927 531.648C39.9012 533.61 36.7141 534.621 33.4658 534.511C30.2175 534.402 27.1056 533.179 24.6519 531.047C22.1984 528.916 20.5523 526.006 19.9897 522.805C19.5951 520.59 19.7384 518.313 20.4076 516.164L20.5946 515.564L27.5985 519.659L22.5024 511.989L22.721 511.705C24.7048 509.131 27.5136 507.317 30.6761 506.567ZM20.482 522.718L20.9745 522.632C21.4974 525.607 23.0273 528.311 25.3077 530.292C27.5882 532.273 30.4804 533.41 33.4995 533.512C36.5185 533.613 39.4806 532.674 41.8892 530.851C44.2977 529.028 46.0062 526.432 46.728 523.499C47.4498 520.566 47.1411 517.473 45.8537 514.741C44.5662 512.008 42.3783 509.801 39.6569 508.49C36.9355 507.179 33.846 506.844 30.9067 507.54C28.0831 508.209 25.563 509.792 23.7345 512.036L30.8202 522.701L21.1889 517.07C20.7189 518.884 20.6447 520.781 20.9743 522.63L20.482 522.718Z"
      fill="#1D1D35" />
    <path
      d="M481.043 341.116C490.432 341.116 498.043 331.266 498.043 319.116C498.043 306.965 490.432 297.116 481.043 297.116C471.654 297.116 464.043 306.965 464.043 319.116C464.043 331.266 471.654 341.116 481.043 341.116Z"
      fill="#2F2E41" />
    <path
      d="M573.543 341.616C582.932 341.616 590.543 331.766 590.543 319.616C590.543 307.465 582.932 297.616 573.543 297.616C564.154 297.616 556.543 307.465 556.543 319.616C556.543 331.766 564.154 341.616 573.543 341.616Z"
      fill="#2F2E41" />
    <path
      d="M560.543 384.615C560.543 394.555 546.663 402.615 529.543 402.615C512.423 402.615 498.543 394.555 498.543 384.615C498.543 376.005 508.953 368.805 522.863 367.045C525.078 366.753 527.309 366.61 529.543 366.615C533.286 366.603 537.019 367.006 540.673 367.816C552.293 370.406 560.543 376.955 560.543 384.615Z"
      fill="#2F2E41" />
    <path fill-rule="evenodd" clip-rule="evenodd"
      d="M485.043 292.616C476.043 292.616 468.543 302.114 468.543 314.116C468.543 326.117 476.043 335.616 485.043 335.616C494.043 335.616 501.543 326.117 501.543 314.116C501.543 302.114 494.043 292.616 485.043 292.616ZM467.543 314.116C467.543 301.817 475.266 291.616 485.043 291.616C494.82 291.616 502.543 301.817 502.543 314.116C502.543 326.415 494.82 336.616 485.043 336.616C475.266 336.616 467.543 326.415 467.543 314.116Z"
      fill="#1D1D35" />
    <path fill-rule="evenodd" clip-rule="evenodd"
      d="M577.543 293.116C568.543 293.116 561.043 302.614 561.043 314.616C561.043 326.617 568.543 336.116 577.543 336.116C586.543 336.116 594.043 326.617 594.043 314.616C594.043 302.614 586.543 293.116 577.543 293.116ZM560.043 314.616C560.043 302.317 567.766 292.116 577.543 292.116C587.32 292.116 595.043 302.317 595.043 314.616C595.043 326.915 587.32 337.116 577.543 337.116C567.766 337.116 560.043 326.915 560.043 314.616Z"
      fill="#1D1D35" />
    <path fill-rule="evenodd" clip-rule="evenodd"
      d="M511.874 367.32C506.34 370.533 503.043 374.898 503.043 379.616C503.043 384.333 506.34 388.698 511.874 391.911C517.395 395.117 525.055 397.116 533.543 397.116C542.031 397.116 549.691 395.117 555.212 391.911C560.746 388.698 564.043 384.333 564.043 379.616C564.043 374.898 560.746 370.533 555.212 367.32C549.691 364.114 542.031 362.116 533.543 362.116C525.055 362.116 517.395 364.114 511.874 367.32ZM511.372 366.455C517.07 363.146 524.91 361.116 533.543 361.116C542.176 361.116 550.015 363.146 555.714 366.455C561.401 369.757 565.043 374.392 565.043 379.616C565.043 384.839 561.401 389.474 555.714 392.776C550.015 396.085 542.176 398.116 533.543 398.116C524.91 398.116 517.07 396.085 511.372 392.776C505.685 389.474 502.043 384.839 502.043 379.616C502.043 374.392 505.685 369.757 511.372 366.455Z"
      fill="#1D1D35" />
    <path
      d="M541.043 369.316C541.051 370.573 540.579 371.786 539.723 372.707C539.319 373.149 538.827 373.502 538.28 373.744C537.733 373.986 537.141 374.113 536.543 374.115H526.543C525.311 374.073 524.146 373.544 523.302 372.644C522.459 371.745 522.006 370.548 522.043 369.316C522.038 368.341 522.323 367.386 522.863 366.574C525.076 366.263 527.308 366.109 529.543 366.115C533.29 366.103 537.026 366.533 540.673 367.396C540.92 368.005 541.045 368.658 541.043 369.316V369.316Z"
      fill="white" />
    <path
      d="M485.043 313.116C487.804 313.116 490.043 310.877 490.043 308.116C490.043 305.354 487.804 303.116 485.043 303.116C482.282 303.116 480.043 305.354 480.043 308.116C480.043 310.877 482.282 313.116 485.043 313.116Z"
      fill="white" />
    <path
      d="M578.043 313.116C580.804 313.116 583.043 310.877 583.043 308.116C583.043 305.354 580.804 303.116 578.043 303.116C575.282 303.116 573.043 305.354 573.043 308.116C573.043 310.877 575.282 313.116 578.043 313.116Z"
      fill="white" />
    <path opacity="0.3"
      d="M583.043 360.116C585.804 360.116 588.043 357.877 588.043 355.116C588.043 352.354 585.804 350.116 583.043 350.116C580.282 350.116 578.043 352.354 578.043 355.116C578.043 357.877 580.282 360.116 583.043 360.116Z"
      fill="#2CB674" />
    <path opacity="0.3"
      d="M461.043 360.116C463.804 360.116 466.043 357.877 466.043 355.116C466.043 352.354 463.804 350.116 461.043 350.116C458.282 350.116 456.043 352.354 456.043 355.116C456.043 357.877 458.282 360.116 461.043 360.116Z"
      fill="#2CB674" />
  </g>
  <defs>
    <clipPath id="clip0_112_119">
      <rect width="1074.39" height="584.231" fill="white" transform="translate(0.0969238)" />
    </clipPath>
  </defs>
</svg>
