<svg width="1075" height="609" viewBox="0 0 1075 609" fill="none" xmlns="http://www.w3.org/2000/svg">
  <path
    d="M541.142 502.674C832.472 502.674 1068.64 487.04 1068.64 467.753C1068.64 448.466 832.472 432.831 541.142 432.831C249.811 432.831 13.6416 448.466 13.6416 467.753C13.6416 487.04 249.811 502.674 541.142 502.674Z"
    fill="#F2F2F2" />
  <path
    d="M1007.36 337.993C1010.39 339.094 1013.63 339.477 1016.84 339.111C1020.04 338.745 1023.11 337.64 1025.82 335.883C1028.52 334.126 1030.78 331.766 1032.41 328.988C1034.05 326.21 1035.01 323.09 1035.24 319.875C1035.46 316.659 1034.93 313.436 1033.7 310.459C1032.46 307.481 1030.55 304.832 1028.12 302.718C1025.68 300.605 1022.79 299.086 1019.67 298.281C1016.55 297.475 1013.29 297.406 1010.13 298.078L1010.65 308.79L1005.59 299.61C1000.61 301.947 996.77 306.163 994.903 311.332C994.24 313.143 993.837 315.038 993.706 316.962C993.386 321.476 994.546 325.971 997.01 329.766C999.475 333.561 1003.11 336.449 1007.36 337.993V337.993Z"
    fill="#FCDA68" />
  <path
    d="M1032.44 462.236C1030.65 453.126 1038.4 445.05 1046.06 439.8C1053.72 434.55 1062.67 429.392 1065.28 420.483C1069.03 407.679 1057.85 395.953 1049.14 385.841C1042.68 378.337 1037.14 370.094 1032.62 361.284C1030.81 357.751 1029.14 354.059 1028.67 350.118C1027.98 344.442 1029.8 338.795 1031.64 333.381C1037.76 315.347 1044.3 297.463 1051.27 279.731"
    stroke="#1D1D35" stroke-miterlimit="10" />
  <path
    d="M1008.22 335.235C1011.25 336.336 1014.49 336.719 1017.69 336.353C1020.9 335.987 1023.97 334.882 1026.67 333.125C1029.38 331.368 1031.63 329.008 1033.27 326.23C1034.9 323.452 1035.87 320.332 1036.09 317.117C1036.32 313.901 1035.79 310.678 1034.55 307.701C1033.32 304.723 1031.41 302.074 1028.98 299.96C1026.54 297.847 1023.65 296.328 1020.53 295.523C1017.41 294.717 1014.14 294.648 1010.99 295.32L1011.51 306.032L1006.44 296.852C1001.47 299.189 997.627 303.405 995.76 308.574C995.097 310.385 994.694 312.28 994.563 314.204C994.243 318.718 995.403 323.213 997.867 327.008C1000.33 330.803 1003.97 333.691 1008.22 335.235V335.235Z"
    stroke="#1D1D35" stroke-miterlimit="10" />
  <path
    d="M1029.9 276.032C1031.08 272.752 1033.08 269.823 1035.7 267.517C1038.32 265.211 1041.47 263.6 1044.88 262.834L1046.59 273.018L1049.77 262.322C1054.18 262.388 1058.45 263.853 1061.98 266.507C1065.5 269.162 1068.09 272.867 1069.37 277.088C1070.65 281.31 1070.56 285.83 1069.1 289.994C1067.65 294.159 1064.91 297.753 1061.28 300.259C1057.64 302.764 1053.31 304.051 1048.9 303.933C1044.49 303.814 1040.23 302.298 1036.74 299.602C1033.25 296.906 1030.7 293.17 1029.47 288.933C1028.24 284.697 1028.39 280.179 1029.9 276.032H1029.9Z"
    fill="#FCDA68" />
  <path
    d="M1031.04 272.355C1032.23 269.074 1034.22 266.146 1036.84 263.84C1039.46 261.533 1042.61 259.923 1046.02 259.157L1047.73 269.341L1050.91 258.645C1055.32 258.71 1059.6 260.176 1063.12 262.83C1066.64 265.484 1069.23 269.19 1070.51 273.411C1071.79 277.633 1071.7 282.152 1070.25 286.317C1068.79 290.482 1066.05 294.076 1062.42 296.581C1058.79 299.087 1054.45 300.373 1050.04 300.255C1045.63 300.137 1041.38 298.621 1037.88 295.925C1034.39 293.229 1031.85 289.493 1030.62 285.256C1029.39 281.02 1029.53 276.502 1031.04 272.355H1031.04Z"
    stroke="#1D1D35" stroke-miterlimit="10" />
  <path
    d="M1045.49 386.048C1050.29 387.791 1055.57 387.705 1060.32 385.806C1065.06 383.908 1068.94 380.33 1071.22 375.755C1073.49 371.179 1074.01 365.926 1072.66 360.997C1071.31 356.067 1068.2 351.806 1063.91 349.025L1061.47 357.245L1059.74 346.941C1059.72 346.933 1059.7 346.926 1059.68 346.921C1057.11 345.987 1054.38 345.568 1051.65 345.689C1048.92 345.81 1046.24 346.468 1043.76 347.626C1041.29 348.783 1039.06 350.417 1037.22 352.434C1035.37 354.452 1033.94 356.813 1033.01 359.383C1032.08 361.953 1031.66 364.682 1031.78 367.413C1031.91 370.144 1032.57 372.825 1033.73 375.301C1034.88 377.777 1036.52 380.001 1038.54 381.845C1040.56 383.689 1042.92 385.117 1045.49 386.048H1045.49Z"
    fill="#FCDA68" />
  <path
    d="M1046.48 382.323C1051.28 384.066 1056.56 383.98 1061.31 382.081C1066.05 380.183 1069.93 376.605 1072.21 372.03C1074.48 367.454 1075 362.201 1073.65 357.272C1072.3 352.342 1069.19 348.081 1064.9 345.3L1062.46 353.52L1060.73 343.216C1060.71 343.208 1060.69 343.201 1060.67 343.196C1058.1 342.262 1055.38 341.844 1052.64 341.964C1049.91 342.085 1047.23 342.743 1044.75 343.901C1042.28 345.058 1040.05 346.692 1038.21 348.71C1036.36 350.727 1034.93 353.088 1034 355.658C1033.07 358.228 1032.65 360.957 1032.77 363.688C1032.9 366.42 1033.56 369.1 1034.72 371.576C1035.87 374.052 1037.51 376.276 1039.53 378.12C1041.55 379.964 1043.91 381.392 1046.48 382.323H1046.48Z"
    stroke="#1D1D35" stroke-miterlimit="10" />
  <path
    d="M1023.82 420.61C1024.65 425.31 1027.07 429.584 1030.67 432.713C1034.27 435.843 1038.84 437.639 1043.61 437.799C1048.38 437.96 1053.06 436.476 1056.86 433.596C1060.67 430.715 1063.37 426.614 1064.51 421.98C1065.65 417.347 1065.16 412.461 1063.13 408.144C1061.09 403.827 1057.64 400.341 1053.34 398.27C1049.04 396.198 1044.16 395.669 1039.51 396.769C1034.87 397.869 1030.75 400.533 1027.83 404.313L1037.11 418.269L1024.44 410.862C1023.45 414.015 1023.24 417.359 1023.82 420.61V420.61Z"
    fill="#FCDA68" />
  <path
    d="M1024.68 417.852C1025.51 422.553 1027.92 426.826 1031.53 429.956C1035.13 433.085 1039.7 434.881 1044.47 435.042C1049.24 435.202 1053.92 433.718 1057.72 430.838C1061.53 427.958 1064.23 423.857 1065.37 419.223C1066.51 414.589 1066.02 409.704 1063.98 405.386C1061.95 401.069 1058.49 397.583 1054.19 395.512C1049.89 393.441 1045.01 392.911 1040.37 394.011C1035.73 395.111 1031.6 397.775 1028.69 401.555L1037.96 415.512L1025.29 408.104C1024.31 411.257 1024.1 414.601 1024.68 417.852V417.852Z"
    stroke="#1D1D35" stroke-miterlimit="10" />
  <path
    d="M9.50575 388.692C11.496 389.416 13.6272 389.667 15.7312 389.427C17.8352 389.186 19.8546 388.46 21.6302 387.306C23.4058 386.152 24.8891 384.601 25.9631 382.776C27.0371 380.951 27.6724 378.901 27.8191 376.788C27.9658 374.676 27.6198 372.558 26.8084 370.602C25.997 368.645 24.7423 366.905 23.1433 365.516C21.5442 364.128 19.6446 363.129 17.594 362.6C15.5434 362.071 13.3979 362.026 11.3267 362.467L11.669 369.505L8.33914 363.474C5.07107 365.009 2.54634 367.779 1.31978 371.176C0.884183 372.365 0.619369 373.611 0.533244 374.875C0.323061 377.84 1.08527 380.793 2.70436 383.287C4.32346 385.78 6.71119 387.678 9.50575 388.692V388.692Z"
    fill="#FCDA68" />
  <path
    d="M25.9823 470.323C24.8068 464.337 29.9003 459.03 34.9314 455.581C39.9626 452.132 45.8412 448.743 47.5578 442.89C50.025 434.477 42.6762 426.773 36.9564 420.13C32.7129 415.199 29.0687 409.783 26.1001 403.995C24.8095 401.721 23.9305 399.238 23.5035 396.658C23.0525 392.93 24.2505 389.219 25.4574 385.662C29.478 373.813 33.7767 362.063 38.3536 350.413"
    stroke="#1D1D35" stroke-miterlimit="10" />
  <path
    d="M10.0692 386.88C12.0595 387.604 14.1907 387.855 16.2947 387.615C18.3987 387.374 20.4181 386.648 22.1937 385.494C23.9693 384.34 25.4525 382.789 26.5265 380.964C27.6005 379.138 28.2359 377.089 28.3826 374.976C28.5293 372.863 28.1833 370.746 27.3719 368.79C26.5604 366.833 25.3058 365.093 23.7067 363.704C22.1077 362.316 20.208 361.317 18.1574 360.788C16.1069 360.259 13.9614 360.214 11.8902 360.655L12.2325 367.693L8.90263 361.662C5.63455 363.197 3.10982 365.967 1.88326 369.364C1.44766 370.553 1.18285 371.799 1.09672 373.062C0.886528 376.028 1.64873 378.981 3.26783 381.475C4.88693 383.968 7.27467 385.866 10.0692 386.88V386.88Z"
    stroke="#1D1D35" stroke-miterlimit="10" />
  <path
    d="M24.3107 347.982C25.0917 345.827 26.4027 343.903 28.1227 342.388C29.8427 340.873 31.9164 339.815 34.1528 339.311L35.2786 346.002L37.366 338.975C40.2642 339.018 43.0737 339.981 45.389 341.725C47.7042 343.469 49.4054 345.903 50.2469 348.677C51.0884 351.45 51.0266 354.42 50.0705 357.156C49.1145 359.892 47.3135 362.254 44.9278 363.9C42.542 365.546 39.6949 366.391 36.7974 366.314C33.8999 366.236 31.1021 365.24 28.8078 363.469C26.5135 361.697 24.8415 359.243 24.0332 356.459C23.2248 353.676 23.322 350.707 24.3107 347.982V347.982Z"
    fill="#FCDA68" />
  <path
    d="M25.0617 345.566C25.8427 343.411 27.1537 341.487 28.8736 339.972C30.5936 338.457 32.6674 337.399 34.9037 336.895L36.0296 343.586L38.117 336.559C41.0152 336.602 43.8247 337.565 46.14 339.309C48.4552 341.053 50.1564 343.487 50.9979 346.261C51.8394 349.034 51.7776 352.004 50.8215 354.74C49.8654 357.476 48.0645 359.838 45.6787 361.484C43.293 363.13 40.4458 363.975 37.5484 363.898C34.6509 363.82 31.853 362.824 29.5588 361.052C27.2645 359.281 25.5925 356.827 24.7841 354.043C23.9758 351.26 24.073 348.291 25.0617 345.566V345.566Z"
    stroke="#1D1D35" stroke-miterlimit="10" />
  <path
    d="M34.5556 420.265C37.712 421.41 41.1794 421.353 44.2968 420.106C47.4142 418.859 49.9637 416.508 51.4593 413.502C52.9548 410.496 53.292 407.044 52.4064 403.806C51.5208 400.567 49.4744 397.767 46.6573 395.94L45.0533 401.341L43.916 394.571C43.9048 394.565 43.8931 394.561 43.8812 394.558C42.1929 393.944 40.4001 393.668 38.6054 393.748C36.8106 393.827 35.0491 394.259 33.4214 395.019C31.7938 395.78 30.3319 396.853 29.1194 398.179C27.9068 399.505 26.9674 401.056 26.3548 402.745C25.7421 404.434 25.4683 406.227 25.5489 408.021C25.6296 409.816 26.0631 411.577 26.8247 413.204C27.5863 414.831 28.661 416.292 29.9876 417.504C31.3141 418.715 32.8663 419.654 34.5556 420.265V420.265Z"
    fill="#FCDA68" />
  <path
    d="M35.2068 417.818C38.3632 418.963 41.8305 418.906 44.948 417.659C48.0654 416.412 50.6148 414.061 52.1104 411.055C53.606 408.049 53.9431 404.598 53.0575 401.359C52.1719 398.12 50.1256 395.32 47.3084 393.493L45.7045 398.894L44.5672 392.124C44.5559 392.119 44.5443 392.114 44.5324 392.111C42.8444 391.498 41.0524 391.224 39.2586 391.305C37.4647 391.385 35.7043 391.818 34.0778 392.578C30.7928 394.114 28.2526 396.893 27.0159 400.302C25.7793 403.711 25.9475 407.471 27.4836 410.756C29.0197 414.041 31.7978 416.581 35.2068 417.818V417.818Z"
    stroke="#1D1D35" stroke-miterlimit="10" />
  <path
    d="M20.3204 442.973C20.8631 446.062 22.4512 448.869 24.8182 450.925C27.1853 452.982 30.1873 454.161 33.321 454.267C36.4547 454.372 39.5293 453.397 42.0293 451.505C44.5293 449.613 46.3026 446.918 47.0519 443.874C47.8011 440.829 47.4807 437.619 46.1444 434.783C44.808 431.947 42.537 429.656 39.7123 428.295C36.8875 426.934 33.6808 426.586 30.6298 427.309C27.5788 428.032 24.8692 429.782 22.9554 432.266L29.0477 441.435L20.7233 436.568C20.0779 438.64 19.9397 440.837 20.3204 442.973V442.973Z"
    fill="#FCDA68" />
  <path
    d="M20.8834 441.161C21.4261 444.25 23.0142 447.057 25.3812 449.113C27.7482 451.17 30.7503 452.349 33.884 452.455C37.0177 452.56 40.0923 451.585 42.5923 449.693C45.0923 447.801 46.8656 445.106 47.6149 442.062C48.3641 439.017 48.0437 435.807 46.7073 432.971C45.371 430.135 43.1 427.844 40.2753 426.483C37.4505 425.122 34.2437 424.774 31.1928 425.497C28.1418 426.22 25.4322 427.97 23.5184 430.454L29.6107 439.623L21.2863 434.756C20.6409 436.828 20.5027 439.025 20.8834 441.161V441.161Z"
    stroke="#1D1D35" stroke-miterlimit="10" />
  <path
    d="M469.444 269.559C478.833 269.559 486.444 259.709 486.444 247.559C486.444 235.409 478.833 225.559 469.444 225.559C460.055 225.559 452.444 235.409 452.444 247.559C452.444 259.709 460.055 269.559 469.444 269.559Z"
    fill="#2F2E41" />
  <path
    d="M561.944 270.059C571.333 270.059 578.944 260.209 578.944 248.059C578.944 235.909 571.333 226.059 561.944 226.059C552.555 226.059 544.944 235.909 544.944 248.059C544.944 260.209 552.555 270.059 561.944 270.059Z"
    fill="#2F2E41" />
  <path
    d="M548.944 313.059C548.944 322.999 535.064 331.059 517.944 331.059C500.824 331.059 486.944 322.999 486.944 313.059C486.944 304.449 497.354 297.249 511.264 295.489C513.479 295.197 515.711 295.053 517.944 295.059C521.687 295.047 525.42 295.449 529.074 296.259C540.694 298.849 548.944 305.399 548.944 313.059Z"
    fill="#2F2E41" />
  <path
    d="M473.444 264.559C482.833 264.559 490.444 254.709 490.444 242.559C490.444 230.409 482.833 220.559 473.444 220.559C464.055 220.559 456.444 230.409 456.444 242.559C456.444 254.709 464.055 264.559 473.444 264.559Z"
    stroke="#1D1D35" stroke-miterlimit="10" />
  <path
    d="M565.944 265.059C575.333 265.059 582.944 255.209 582.944 243.059C582.944 230.909 575.333 221.059 565.944 221.059C556.555 221.059 548.944 230.909 548.944 243.059C548.944 255.209 556.555 265.059 565.944 265.059Z"
    stroke="#1D1D35" stroke-miterlimit="10" />
  <path
    d="M521.944 326.059C539.065 326.059 552.944 318 552.944 308.059C552.944 298.118 539.065 290.059 521.944 290.059C504.823 290.059 490.944 298.118 490.944 308.059C490.944 318 504.823 326.059 521.944 326.059Z"
    stroke="#1D1D35" stroke-miterlimit="10" />
  <path
    d="M529.444 297.759C529.453 299.016 528.98 300.23 528.124 301.151C527.72 301.592 527.229 301.945 526.682 302.187C526.134 302.43 525.543 302.556 524.944 302.559H514.944C513.712 302.516 512.547 301.987 511.704 301.087C510.861 300.188 510.408 298.991 510.444 297.759C510.439 296.784 510.725 295.829 511.264 295.018C513.477 294.706 515.71 294.553 517.944 294.559C521.692 294.547 525.428 294.976 529.074 295.839C529.321 296.449 529.447 297.101 529.444 297.759V297.759Z"
    fill="white" />
  <path
    d="M473.444 241.559C476.206 241.559 478.444 239.321 478.444 236.559C478.444 233.798 476.206 231.559 473.444 231.559C470.683 231.559 468.444 233.798 468.444 236.559C468.444 239.321 470.683 241.559 473.444 241.559Z"
    fill="white" />
  <path
    d="M566.444 241.559C569.206 241.559 571.444 239.321 571.444 236.559C571.444 233.798 569.206 231.559 566.444 231.559C563.683 231.559 561.444 233.798 561.444 236.559C561.444 239.321 563.683 241.559 566.444 241.559Z"
    fill="white" />
  <path opacity="0.3"
    d="M571.444 288.559C574.206 288.559 576.444 286.321 576.444 283.559C576.444 280.798 574.206 278.559 571.444 278.559C568.683 278.559 566.444 280.798 566.444 283.559C566.444 286.321 568.683 288.559 571.444 288.559Z"
    fill="#2CB674" />
  <path opacity="0.3"
    d="M449.444 288.559C452.206 288.559 454.444 286.321 454.444 283.559C454.444 280.798 452.206 278.559 449.444 278.559C446.683 278.559 444.444 280.798 444.444 283.559C444.444 286.321 446.683 288.559 449.444 288.559Z"
    fill="#2CB674" />
  <path
    d="M215.569 228.405C248.569 228.405 276.403 238.239 299.069 257.905C322.069 277.239 333.569 304.072 333.569 338.405C333.569 372.405 321.903 399.239 298.569 418.905C275.236 438.572 246.903 448.405 213.569 448.405C186.903 448.405 163.069 442.072 142.069 429.405C121.069 416.405 106.403 397.739 98.0693 373.405L137.569 350.905C142.236 367.905 151.236 380.905 164.569 389.905C177.903 398.572 194.236 402.905 213.569 402.905C235.569 402.905 253.403 397.239 267.069 385.905C280.736 374.572 287.569 358.739 287.569 338.405C287.569 318.072 280.736 302.239 267.069 290.905C253.403 279.239 235.903 273.405 214.569 273.405H115.569L128.569 91.9052H320.069V135.405H170.569L164.569 228.405H215.569Z"
    fill="#2CB674" />
  <path
    d="M609.054 398.905C585.387 431.905 552.22 448.405 509.554 448.405C466.887 448.405 433.72 431.905 410.054 398.905C386.387 365.905 374.554 321.905 374.554 266.905C374.554 211.905 386.387 167.905 410.054 134.905C433.72 101.905 466.887 85.4052 509.554 85.4052C552.22 85.4052 585.387 101.905 609.054 134.905C632.72 167.905 644.554 211.905 644.554 266.905C644.554 321.905 632.72 365.905 609.054 398.905ZM444.054 367.405C459.387 391.072 481.22 402.905 509.554 402.905C537.887 402.905 559.72 391.072 575.054 367.405C590.72 343.739 598.554 310.239 598.554 266.905C598.554 223.572 590.72 190.072 575.054 166.405C559.72 142.405 537.887 130.405 509.554 130.405C481.22 130.405 459.387 142.239 444.054 165.905C428.72 189.572 421.054 223.239 421.054 266.905C421.054 310.239 428.72 343.739 444.054 367.405ZM923.995 398.905C900.328 431.905 867.162 448.405 824.495 448.405C781.828 448.405 748.662 431.905 724.995 398.905C701.328 365.905 689.495 321.905 689.495 266.905C689.495 211.905 701.328 167.905 724.995 134.905C748.662 101.905 781.828 85.4052 824.495 85.4052C867.162 85.4052 900.328 101.905 923.995 134.905C947.662 167.905 959.495 211.905 959.495 266.905C959.495 321.905 947.662 365.905 923.995 398.905ZM758.995 367.405C774.328 391.072 796.162 402.905 824.495 402.905C852.828 402.905 874.662 391.072 889.995 367.405C905.662 343.739 913.495 310.239 913.495 266.905C913.495 223.572 905.662 190.072 889.995 166.405C874.662 142.405 852.828 130.405 824.495 130.405C796.162 130.405 774.328 142.239 758.995 165.905C743.662 189.572 735.995 223.239 735.995 266.905C735.995 310.239 743.662 343.739 758.995 367.405Z"
    fill="#1D1D35" />
  <path
    d="M317.569 258.31L316.259 259.82L316.27 259.831L316.282 259.841L317.569 258.31ZM317.069 419.31L315.78 417.781L315.78 417.781L317.069 419.31ZM160.569 429.81L159.517 431.51L159.526 431.516L159.536 431.522L160.569 429.81ZM116.569 373.81L115.579 372.072L114.141 372.891L114.677 374.458L116.569 373.81ZM156.069 351.31L157.998 350.78L157.316 348.298L155.079 349.572L156.069 351.31ZM183.069 390.31L181.95 391.968L181.965 391.977L181.979 391.987L183.069 390.31ZM285.569 386.31L286.846 387.849L286.846 387.849L285.569 386.31ZM285.569 291.31L284.271 292.831L284.282 292.84L284.293 292.849L285.569 291.31ZM134.069 273.81L132.074 273.667L131.921 275.81H134.069V273.81ZM147.069 92.3098V90.3098H145.207L145.074 92.1669L147.069 92.3098ZM338.569 92.3098H340.569V90.3098H338.569V92.3098ZM338.569 135.81V137.81H340.569V135.81H338.569ZM189.069 135.81V133.81H187.194L187.073 135.681L189.069 135.81ZM183.069 228.81L181.073 228.681L180.936 230.81H183.069V228.81ZM234.069 230.81C266.639 230.81 293.993 240.502 316.259 259.82L318.88 256.799C295.812 236.785 267.499 226.81 234.069 226.81V230.81ZM316.282 259.841C338.763 278.737 350.069 304.973 350.069 338.81H354.069C354.069 303.98 342.376 276.549 318.856 256.779L316.282 259.841ZM350.069 338.81C350.069 372.296 338.608 398.54 315.78 417.781L318.358 420.839C342.197 400.746 354.069 373.324 354.069 338.81H350.069ZM315.78 417.781C292.842 437.114 264.978 446.81 232.069 446.81V450.81C265.828 450.81 294.63 440.839 318.358 420.839L315.78 417.781ZM232.069 446.81C205.734 446.81 182.264 440.56 161.602 428.097L159.536 431.522C180.875 444.393 205.072 450.81 232.069 450.81V446.81ZM161.622 428.109C141.032 415.363 126.652 397.077 118.461 373.162L114.677 374.458C123.154 399.209 138.106 418.256 159.517 431.51L161.622 428.109ZM117.559 375.548L157.059 353.048L155.079 349.572L115.579 372.072L117.559 375.548ZM154.141 351.839C158.921 369.252 168.182 382.674 181.95 391.968L184.188 388.652C171.29 379.946 162.551 367.367 157.998 350.78L154.141 351.839ZM181.979 391.987C195.701 400.906 212.433 405.31 232.069 405.31V401.31C213.039 401.31 197.104 397.047 184.159 388.633L181.979 391.987ZM232.069 405.31C254.421 405.31 272.741 399.546 286.846 387.849L284.293 384.77C271.064 395.74 253.718 401.31 232.069 401.31V405.31ZM286.846 387.849C301.041 376.078 308.069 359.642 308.069 338.81H304.069C304.069 358.645 297.431 373.875 284.293 384.77L286.846 387.849ZM308.069 338.81C308.069 317.978 301.041 301.541 286.846 289.77L284.293 292.849C297.431 303.745 304.069 318.975 304.069 338.81H308.069ZM286.868 289.789C272.774 277.757 254.785 271.81 233.069 271.81V275.81C254.02 275.81 271.031 281.529 284.271 292.831L286.868 289.789ZM233.069 271.81H134.069V275.81H233.069V271.81ZM136.064 273.953L149.064 92.4527L145.074 92.1669L132.074 273.667L136.064 273.953ZM147.069 94.3098H338.569V90.3098H147.069V94.3098ZM336.569 92.3098V135.81H340.569V92.3098H336.569ZM338.569 133.81H189.069V137.81H338.569V133.81ZM187.073 135.681L181.073 228.681L185.065 228.939L191.065 135.939L187.073 135.681ZM183.069 230.81H234.069V226.81H183.069V230.81ZM618.765 399.31L617.139 398.144L617.139 398.144L618.765 399.31ZM419.765 399.31L421.39 398.144L419.765 399.31ZM419.765 135.31L421.39 136.475L421.39 136.475L419.765 135.31ZM618.765 135.31L617.139 136.475L617.139 136.475L618.765 135.31ZM453.765 367.81L455.443 366.722L455.443 366.722L453.765 367.81ZM584.765 367.81L583.097 366.706L583.092 366.714L583.086 366.722L584.765 367.81ZM584.765 166.81L583.079 167.887L583.088 167.9L583.097 167.914L584.765 166.81ZM453.765 166.31L452.086 165.222L452.086 165.222L453.765 166.31ZM617.139 398.144C593.87 430.59 561.325 446.81 519.265 446.81V450.81C562.537 450.81 596.326 434.03 620.39 400.475L617.139 398.144ZM519.265 446.81C477.204 446.81 444.659 430.59 421.39 398.144L418.139 400.475C442.204 434.03 475.992 450.81 519.265 450.81V446.81ZM421.39 398.144C398.04 365.586 386.265 322.037 386.265 267.31H382.265C382.265 322.582 394.156 367.034 418.139 400.475L421.39 398.144ZM386.265 267.31C386.265 212.582 398.04 169.034 421.39 136.475L418.139 134.144C394.156 167.586 382.265 212.037 382.265 267.31H386.265ZM421.39 136.475C444.659 104.03 477.204 87.8098 519.265 87.8098V83.8098C475.992 83.8098 442.204 100.59 418.139 134.144L421.39 136.475ZM519.265 87.8098C561.325 87.8098 593.87 104.03 617.139 136.475L620.39 134.144C596.326 100.59 562.537 83.8098 519.265 83.8098V87.8098ZM617.139 136.475C640.489 169.034 652.265 212.582 652.265 267.31H656.265C656.265 212.037 644.373 167.586 620.39 134.144L617.139 136.475ZM652.265 267.31C652.265 322.037 640.489 365.586 617.139 398.144L620.39 400.475C644.373 367.034 656.265 322.582 656.265 267.31H652.265ZM452.086 368.897C467.79 393.136 490.257 405.31 519.265 405.31V401.31C491.605 401.31 470.406 389.817 455.443 366.722L452.086 368.897ZM519.265 405.31C548.272 405.31 570.739 393.136 586.443 368.897L583.086 366.722C568.124 389.817 546.924 401.31 519.265 401.31V405.31ZM586.432 368.914C602.402 344.789 610.265 310.843 610.265 267.31H606.265C606.265 310.443 598.461 343.497 583.097 366.706L586.432 368.914ZM610.265 267.31C610.265 223.776 602.402 189.83 586.432 165.706L583.097 167.914C598.461 191.123 606.265 224.177 606.265 267.31H610.265ZM586.45 165.733C570.752 141.161 548.285 128.81 519.265 128.81V132.81C546.911 132.81 568.111 144.458 583.079 167.887L586.45 165.733ZM519.265 128.81C490.257 128.81 467.79 140.983 452.086 165.222L455.443 167.397C470.406 144.303 491.605 132.81 519.265 132.81V128.81ZM452.086 165.222C436.457 189.345 428.765 223.453 428.765 267.31H432.765C432.765 223.834 440.405 190.608 455.443 167.397L452.086 165.222ZM428.765 267.31C428.765 310.837 436.459 344.776 452.086 368.897L455.443 366.722C440.404 343.51 432.765 310.449 432.765 267.31H428.765ZM933.706 399.31L932.081 398.144L932.081 398.144L933.706 399.31ZM734.706 399.31L736.331 398.144L734.706 399.31ZM734.706 135.31L736.331 136.475L736.331 136.475L734.706 135.31ZM933.706 135.31L932.081 136.475L932.081 136.475L933.706 135.31ZM768.706 367.81L770.385 366.722L770.385 366.722L768.706 367.81ZM899.706 367.81L898.038 366.706L898.033 366.714L898.028 366.722L899.706 367.81ZM899.706 166.81L898.021 167.887L898.029 167.9L898.038 167.914L899.706 166.81ZM768.706 166.31L767.028 165.222L767.028 165.222L768.706 166.31ZM932.081 398.144C908.812 430.59 876.267 446.81 834.206 446.81V450.81C877.479 450.81 911.267 434.03 935.331 400.475L932.081 398.144ZM834.206 446.81C792.145 446.81 759.6 430.59 736.331 398.144L733.081 400.475C757.145 434.03 790.933 450.81 834.206 450.81V446.81ZM736.331 398.144C712.981 365.586 701.206 322.037 701.206 267.31H697.206C697.206 322.582 709.097 367.034 733.081 400.475L736.331 398.144ZM701.206 267.31C701.206 212.582 712.981 169.034 736.331 136.475L733.081 134.144C709.097 167.586 697.206 212.037 697.206 267.31H701.206ZM736.331 136.475C759.6 104.03 792.145 87.8098 834.206 87.8098V83.8098C790.933 83.8098 757.145 100.59 733.081 134.144L736.331 136.475ZM834.206 87.8098C876.267 87.8098 908.812 104.03 932.081 136.475L935.331 134.144C911.267 100.59 877.479 83.8098 834.206 83.8098V87.8098ZM932.081 136.475C955.431 169.034 967.206 212.582 967.206 267.31H971.206C971.206 212.037 959.315 167.586 935.331 134.144L932.081 136.475ZM967.206 267.31C967.206 322.037 955.431 365.586 932.081 398.144L935.331 400.475C959.315 367.034 971.206 322.582 971.206 267.31H967.206ZM767.028 368.897C782.732 393.136 805.199 405.31 834.206 405.31V401.31C806.547 401.31 785.347 389.817 770.385 366.722L767.028 368.897ZM834.206 405.31C863.213 405.31 885.68 393.136 901.385 368.897L898.028 366.722C883.065 389.817 861.865 401.31 834.206 401.31V405.31ZM901.374 368.914C917.343 344.789 925.206 310.843 925.206 267.31H921.206C921.206 310.443 913.402 343.497 898.038 366.706L901.374 368.914ZM925.206 267.31C925.206 223.776 917.343 189.83 901.374 165.706L898.038 167.914C913.402 191.123 921.206 224.177 921.206 267.31H925.206ZM901.391 165.733C885.693 141.161 863.226 128.81 834.206 128.81V132.81C861.853 132.81 883.052 144.458 898.021 167.887L901.391 165.733ZM834.206 128.81C805.199 128.81 782.732 140.983 767.028 165.222L770.385 167.397C785.347 144.303 806.547 132.81 834.206 132.81V128.81ZM767.028 165.222C751.399 189.345 743.706 223.453 743.706 267.31H747.706C747.706 223.834 755.347 190.608 770.385 167.397L767.028 165.222ZM743.706 267.31C743.706 310.837 751.4 344.776 767.028 368.897L770.385 366.722C755.345 343.51 747.706 310.449 747.706 267.31H743.706Z"
    fill="#1D1D35" />
</svg>
