<svg width="51" height="62" viewBox="0 0 51 62" fill="none" xmlns="http://www.w3.org/2000/svg">
  <path fill-rule="evenodd" clip-rule="evenodd"
    d="M0.152725 3.25739C0.152725 1.52229 1.55931 0.115707 3.29441 0.115707H21.5169V16.1838C21.5169 17.9189 20.1103 19.3255 18.3752 19.3255C16.6401 19.3255 15.2335 17.9189 15.2335 16.1838V6.39908H3.29441C1.55931 6.39908 0.152725 4.9925 0.152725 3.25739Z"
    fill="white" />
  <path
    d="M8.68041 54.6044C8.68041 58.4714 11.8152 61.6062 15.6822 61.6062C19.5492 61.6062 22.684 58.4714 22.684 54.6044C22.684 50.7374 19.5492 47.6026 15.6822 47.6026C11.8152 47.6026 8.68041 50.7374 8.68041 54.6044Z"
    fill="white" />
  <path
    d="M36.1491 54.6044C36.1491 58.4714 39.2839 61.6062 43.1509 61.6062C47.0179 61.6062 50.1527 58.4714 50.1527 54.6044C50.1527 50.7374 47.0179 47.6026 43.1509 47.6026C39.2839 47.6026 36.1491 50.7374 36.1491 54.6044Z"
    fill="white" />
  <path
    d="M27.8229 55.8564C24.5974 55.8564 21.6024 55.2909 18.8377 54.1599C16.1149 53.0289 13.7481 51.458 11.7375 49.4474C9.76867 47.3948 8.21878 44.9862 7.08777 42.2215C5.99865 39.4568 5.45409 36.4198 5.45409 33.1106C5.45409 29.8432 5.99865 26.8272 7.08777 24.0625C8.21878 21.2978 9.76867 18.8892 11.7375 16.8366C13.7481 14.7841 16.1149 13.1923 18.8377 12.0613C21.6024 10.9303 24.5974 10.3648 27.8229 10.3648C31.0484 10.3648 34.0016 10.9303 36.6825 12.0613C39.4053 13.1923 41.772 14.7841 43.7827 16.8366C45.7933 18.8892 47.3433 21.2978 48.4324 24.0625C49.5634 26.8272 50.1289 29.8642 50.1289 33.1734C50.1289 36.3989 49.5634 39.394 48.4324 42.1586C47.3433 44.9233 45.7933 47.3319 43.7827 49.3845C41.772 51.4371 39.4053 53.0289 36.6825 54.1599C34.0016 55.2909 31.0484 55.8564 27.8229 55.8564ZM27.8229 46.934C29.666 46.934 31.3625 46.5989 32.9124 45.9287C34.4623 45.2165 35.8028 44.2531 36.9338 43.0383C38.1067 41.7816 39.0073 40.3155 39.6356 38.6399C40.264 36.9644 40.5782 35.1422 40.5782 33.1734C40.5782 31.1627 40.264 29.3196 39.6356 27.644C39.0073 25.9685 38.1067 24.5024 36.9338 23.2457C35.8028 21.989 34.4623 21.0256 32.9124 20.3553C31.3625 19.6432 29.666 19.2872 27.8229 19.2872C25.9798 19.2872 24.2623 19.6432 22.6705 20.3553C21.1206 21.0256 19.7592 21.989 18.5863 23.2457C17.4553 24.4605 16.5757 25.9266 15.9473 27.644C15.319 29.3196 15.0048 31.1627 15.0048 33.1734C15.0048 35.8124 15.5494 38.1792 16.6385 40.2736C17.7695 42.3262 19.2985 43.9599 21.2254 45.1747C23.1523 46.3476 25.3514 46.934 27.8229 46.934Z"
    fill="#2CB674" />
</svg>
